<svg width="20" height="20" viewBox="0 0 20 20" fill="none" xmlns="http://www.w3.org/2000/svg">
<path id="Vector" d="M8.64363 5.71213L7.92208 -0.00012207H11.1891V5.08078L13.2736 0.721427L16.0896 2.17454L12.9128 5.71213L17.9035 4.25902L19.6272 6.89467L14.9071 8.1674L19.6272 8.88895V12.0658L14.2757 10.4323L19.6272 13.6993L17.8133 16.1545L13.7746 12.8875L16.3602 17.327L14.3659 18.69L12.101 14.3306L12.3716 19.5117H9.1948L9.64577 14.06L7.20053 18.7802L4.92564 17.8782L7.38091 13.6091L4.02371 16.5153L2.01941 14.4208L6.10818 11.5246L1.56844 12.2462L0.666504 9.33992L5.47683 8.97914L0.666504 7.16525L1.74883 4.4394L6.10818 6.0729L3.11175 2.7157L5.65721 0.721427L8.64363 5.71213Z" fill="white"/>
</svg>
