<svg width="340" height="353" viewBox="0 0 340 353" fill="none" xmlns="http://www.w3.org/2000/svg">
<path d="M0 322.473L238.362 326.599L216.588 351.503H19.3415L0 322.473Z" fill="#4ECB71"/>
<path d="M107.312 127.244C107.717 127.183 107.898 126.701 107.634 126.388L87.476 102.527C87.0867 102.066 87.6566 101.42 88.1622 101.75L115.076 119.282C115.412 119.501 115.859 119.277 115.885 118.877L117.606 91.6195C117.644 91.0229 118.491 90.9448 118.637 91.5245L124.408 114.418C124.487 114.733 124.831 114.9 125.128 114.769L148.649 104.366C149.157 104.142 149.619 104.758 149.262 105.183L134.892 122.277C134.654 122.56 134.776 122.994 135.127 123.111L160.5 131.58C161.048 131.762 160.94 132.567 160.364 132.6L133.961 134.086C133.546 134.11 133.322 134.584 133.568 134.919L147.789 154.277C148.127 154.737 147.59 155.329 147.099 155.037L123.21 140.83C123.006 140.709 122.747 140.739 122.577 140.904L104.187 158.785C103.812 159.15 103.191 158.799 103.312 158.289L106.644 144.245C106.734 143.867 106.395 143.527 106.017 143.614L82.9046 148.938C82.3015 149.077 81.9984 148.239 82.5509 147.96L106.772 135.729C107.228 135.499 107.119 134.819 106.614 134.743L85.5191 131.564C84.9247 131.474 84.9247 130.617 85.5191 130.528L107.312 127.244Z" fill="#FFCA49"/>
<path d="M117.707 132.667L111.849 125.777L119.623 130.825L120.102 122.83L121.833 129.609L128.465 126.698L124.339 131.598L131.596 134.03L123.97 134.472L128.096 140.109L121.723 136.94L116.344 141.03L117.339 136.83L110.192 138.451L117.707 134.656L111.076 133.661L117.707 132.667Z" fill="white"/>
<path d="M125.665 139.188H115.828V196.881H125.665V139.188Z" fill="#4ECB71"/>
<path d="M29.1781 192.681V309.172L212.352 313.667V193.786L29.1781 192.681Z" fill="#FF77E6"/>
<path d="M206.199 303.832C202.257 303.832 198.647 304.937 195.884 306.742C192.642 303.021 187.484 300.369 181.479 299.853C172.969 299.116 165.38 302.911 162.322 308.768C159.522 306.926 155.875 305.784 151.896 305.784C147.07 305.784 142.759 307.442 139.849 310.021C136.459 305.158 129.754 301.842 122.018 301.842C114.134 301.842 107.318 305.305 104.002 310.316C101.276 307.553 96.9289 305.784 92.0659 305.784C87.0923 305.784 82.7083 307.626 79.982 310.463C77.1453 305.379 70.5139 301.842 62.8141 301.842C56.2196 301.842 50.4724 304.421 47.1198 308.326C44.3199 304.458 38.9043 301.842 32.6782 301.842C23.5784 301.842 16.2102 307.442 16.2102 314.368C16.2102 321.294 23.5784 326.894 32.6782 326.894C38.0201 326.894 42.7726 324.942 45.7936 321.921C48.7408 326.857 55.2249 330.284 62.7773 330.284C69.8139 330.284 75.9295 327.336 79.1347 322.952C81.7504 326.342 86.5397 328.589 92.0659 328.589C96.9657 328.589 101.276 326.784 104.002 324.058C107.318 329.068 114.134 332.531 122.018 332.531C129.239 332.531 135.538 329.657 139.112 325.31C142.022 328.331 146.664 330.284 151.896 330.284C157.606 330.284 162.58 327.999 165.38 324.536C168.622 327.742 173.374 329.952 178.827 330.431C185.458 330.984 191.574 328.81 195.368 325.052C198.205 327.078 202 328.331 206.163 328.331C214.968 328.331 222.078 322.842 222.078 316.1C222.115 309.284 215.004 303.832 206.199 303.832Z" fill="#FFCA49"/>
<path d="M26.9313 213.497C26.9313 213.497 48.8885 212.281 53.1989 207.492C57.5093 202.703 52.3516 199.608 49.5517 203.181C46.7518 206.755 49.4411 217.328 64.1775 218.286C78.914 219.207 81.8981 211.729 80.4981 207.676C79.0982 203.66 72.9089 203.845 72.0615 208.597C71.3984 212.244 72.3563 218.434 90.8136 217.144C109.308 215.818 108.829 204.471 108.829 204.471C108.829 204.471 109.197 198.097 104.15 198.171C98.4766 198.282 97.5924 212.723 119.255 215.339C140.917 217.955 136.239 204.545 136.239 204.545C136.239 204.545 134.839 200.713 132.223 201.745C129.607 202.776 125.923 215.634 144.712 215.339C163.464 215.044 164.127 204.913 164.127 204.913C164.127 204.913 164.79 198.097 160.848 198.061C156.059 198.061 150.054 211.839 170.611 215.486C191.169 219.134 187.669 205.945 186.269 203.66C184.021 200.013 178.495 200.455 178.311 206.092C178.127 211.729 188.995 224.77 212.463 213.792" stroke="white" stroke-width="1.84205" stroke-miterlimit="10"/>
<path d="M29.1781 239.764H212.352" stroke="white" stroke-width="1.84205" stroke-miterlimit="10"/>
<path d="M29.1781 269.753H212.352" stroke="white" stroke-width="1.84205" stroke-miterlimit="10"/>
<path d="M120.765 133.883V141.03" stroke="#131414" stroke-width="0.921026" stroke-miterlimit="10"/>
<path d="M125.701 149.173L115.828 153.483V155.252L125.701 150.904V149.173Z" fill="white"/>
<path d="M115.975 164.351V166.12L125.812 161.773V160.041L115.975 164.351Z" fill="white"/>
<path d="M115.828 178.793L125.702 174.445V172.714L115.828 177.024V178.793Z" fill="white"/>
<path d="M115.828 189.403L125.701 185.093V183.324L115.828 187.671V189.403Z" fill="white"/>
<path d="M14.1467 349.402L220.199 351.502" stroke="#131414" stroke-width="1.84205" stroke-miterlimit="10"/>
<path d="M163.464 194.338C169.588 194.338 174.553 189.374 174.553 183.249C174.553 177.125 169.588 172.16 163.464 172.16C157.339 172.16 152.375 177.125 152.375 183.249C152.375 189.374 157.339 194.338 163.464 194.338Z" fill="#E84A1A"/>
<path d="M195.589 194.338C201.713 194.338 206.678 189.374 206.678 183.249C206.678 177.125 201.713 172.16 195.589 172.16C189.465 172.16 184.5 177.125 184.5 183.249C184.5 189.374 189.465 194.338 195.589 194.338Z" fill="#E84A1A"/>
<path d="M158.011 157.166C158.011 157.166 166.706 164.129 163.869 175.844" stroke="#121212" stroke-width="1.84205" stroke-miterlimit="10"/>
<path d="M197.321 161.514C197.321 161.514 190.137 164.977 194.263 175.845" stroke="#121212" stroke-width="1.84205" stroke-miterlimit="10"/>
<path d="M190.173 175.292C190.91 176.213 195.884 178.571 197.321 174.813" stroke="#121212" stroke-width="1.84205" stroke-miterlimit="10"/>
<path d="M161.216 175.219C161.216 175.219 163.869 177.171 167.111 175.882" stroke="#121212" stroke-width="1.84205" stroke-miterlimit="10"/>
<path d="M188.294 179.529C188.294 179.529 186.563 183.434 189.363 186.898" stroke="white" stroke-width="1.84205" stroke-miterlimit="10"/>
<path d="M156.575 183.25C156.575 183.25 155.506 189.108 160.922 189.771" stroke="white" stroke-width="1.84205" stroke-miterlimit="10"/>
<path d="M58.0983 194.339C64.2227 194.339 69.1874 189.375 69.1874 183.25C69.1874 177.126 64.2227 172.161 58.0983 172.161C51.9739 172.161 47.0092 177.126 47.0092 183.25C47.0092 189.375 51.9739 194.339 58.0983 194.339Z" fill="#E84A1A"/>
<path d="M90.2607 194.339C96.385 194.339 101.35 189.375 101.35 183.25C101.35 177.126 96.385 172.161 90.2607 172.161C84.1363 172.161 79.1715 177.126 79.1715 183.25C79.1715 189.375 84.1363 194.339 90.2607 194.339Z" fill="#E84A1A"/>
<path d="M61.7822 161.514C61.7822 161.514 55.8876 166.119 58.5402 175.845" stroke="#121212" stroke-width="1.84205" stroke-miterlimit="10"/>
<path d="M84.845 161.514C84.845 161.514 91.9921 168.035 88.9712 175.845" stroke="#121212" stroke-width="1.84205" stroke-miterlimit="10"/>
<path d="M84.845 175.292C85.5818 176.213 90.5553 178.571 91.9921 174.813" stroke="#121212" stroke-width="1.84205" stroke-miterlimit="10"/>
<path d="M55.8878 175.219C55.8878 175.219 58.5404 177.171 61.7824 175.882" stroke="#121212" stroke-width="1.84205" stroke-miterlimit="10"/>
<path d="M82.9294 179.529C82.9294 179.529 81.1979 183.434 83.9978 186.898" stroke="white" stroke-width="1.84205" stroke-miterlimit="10"/>
<path d="M51.2459 183.25C51.2459 183.25 50.1775 189.108 55.5932 189.771" stroke="white" stroke-width="1.84205" stroke-miterlimit="10"/>
<path d="M176.701 30.9093C175.495 30.3448 174.096 31.0827 173.894 32.4003C172.396 42.3161 167.141 77.2802 167.669 79.9506C168.197 82.621 193.773 77.0143 200.757 75.4312C201.738 75.2074 202.729 75.7438 203.064 76.6981C206.532 86.2241 226.349 132.808 277.282 114.64C278.177 114.319 279.204 114.665 279.697 115.488L299.096 147.965C300.035 149.551 302.461 149.121 302.77 147.308L317.687 63.6457C317.954 62.1146 316.449 60.8768 315.008 61.425L282.784 73.7583C281.548 74.2359 280.202 73.4145 280.075 72.1082C279.028 61.3007 271.056 21.9752 210.817 46.0552C210.301 46.2586 209.737 46.2496 209.223 46.0197L176.701 30.9093Z" fill="#FFC8F5" fill-opacity="0.7"/>
<path d="M157.743 64.6392C157.224 64.4858 156.842 64.2147 156.595 63.826C156.364 63.4642 156.297 63.1172 156.395 62.7852C156.506 62.4116 156.641 62.1468 156.8 61.9907C156.986 61.82 157.288 61.7515 157.707 61.785C158.75 61.8452 159.836 61.873 160.966 61.8686C162.122 61.8495 163.209 61.7986 164.227 61.7158C165.25 61.6123 166.094 61.467 166.759 61.2799C167.444 61.0989 167.827 60.8735 167.907 60.6037C167.98 60.3547 167.823 60.0485 167.434 59.6852C167.051 59.3012 166.549 58.8596 165.93 58.3604C165.31 57.8612 164.648 57.3155 163.943 56.7234C163.238 56.1313 162.6 55.5026 162.029 54.8374C161.459 54.1722 161.031 53.4815 160.746 52.7655C160.468 52.0286 160.442 51.2763 160.669 50.5084C161.025 49.3048 161.647 48.27 162.535 47.4042C163.45 46.5238 164.516 45.7785 165.735 45.1684C166.953 44.5584 168.244 44.0485 169.606 43.639C170.995 43.2148 172.336 42.8778 173.629 42.6281C174.948 42.3638 176.121 42.1353 177.149 41.9426C177.488 41.8625 177.802 41.8312 178.09 41.8488C178.379 41.8663 178.626 41.9057 178.834 41.9671C179.436 42.1451 179.832 42.4088 180.022 42.7584C180.212 43.108 180.255 43.4591 180.15 43.8119C180.064 44.1025 179.807 44.3989 179.38 44.7011C178.958 44.9826 178.413 45.1827 177.746 45.3014C177.079 45.4201 176.341 45.3598 175.532 45.1205L175.283 45.0469C174.467 45.2118 173.567 45.4309 172.584 45.7042C171.6 45.9776 170.611 46.3059 169.618 46.6891C168.625 47.0724 167.687 47.4948 166.806 47.9564C165.952 48.4033 165.228 48.8664 164.635 49.3455C164.063 49.8307 163.703 50.3223 163.556 50.8204C163.378 51.4222 163.446 52.0293 163.762 52.6416C164.077 53.254 164.533 53.8512 165.128 54.4334C165.744 55.0218 166.394 55.6089 167.078 56.1949C167.783 56.787 168.433 57.3742 169.028 57.9564C169.65 58.524 170.125 59.0932 170.453 59.664C170.787 60.2141 170.871 60.7693 170.705 61.3296C170.515 61.9729 170.105 62.5176 169.477 62.9637C168.869 63.4159 168.129 63.7837 167.255 64.0669C166.388 64.3295 165.46 64.529 164.471 64.6656C163.51 64.7875 162.575 64.8606 161.665 64.885C160.755 64.9093 159.946 64.8959 159.239 64.8448C158.553 64.7998 158.054 64.7313 157.743 64.6392ZM176.384 58.2021C175.836 57.9949 175.684 57.5551 175.928 56.8825C175.998 56.7226 176.17 56.5592 176.445 56.3923C176.727 56.2046 177.005 56.1403 177.281 56.1993C177.943 56.3273 178.759 56.4671 179.73 56.6188C180.727 56.7558 181.824 56.8997 183.021 57.0504C183.529 56.0949 184.094 55.0998 184.716 54.065C185.338 53.0303 185.982 52.0359 186.648 51.0818C187.32 50.107 187.982 49.2421 188.634 48.4871C189.286 47.7321 189.903 47.1699 190.487 46.8008C190.782 46.64 191.036 46.5457 191.247 46.5179C191.465 46.4694 191.646 46.4666 191.791 46.5096C192.082 46.5955 192.273 46.7875 192.366 47.0856C192.479 47.3899 192.489 47.6977 192.397 48.009C192.348 48.175 192.268 48.3318 192.157 48.4794C191.398 49.5188 190.528 50.8188 189.548 52.3794C188.567 53.94 187.51 55.647 186.375 57.5005C188.376 57.7538 190.383 57.9863 192.397 58.1981C194.411 58.4099 196.145 58.573 197.601 58.6875C198.044 58.6381 198.336 58.7582 198.476 59.0478C198.637 59.3436 198.683 59.6057 198.616 59.8339C198.53 60.1245 198.383 60.3178 198.174 60.414C197.985 60.5163 197.793 60.5948 197.596 60.6495L197.556 60.6714C197.092 60.7147 196.411 60.7277 195.513 60.7106C194.622 60.6726 193.6 60.6186 192.447 60.5485C191.3 60.4577 190.081 60.3454 188.789 60.2116C187.518 60.0839 186.263 59.9386 185.025 59.7756C184.008 61.4607 182.965 63.1946 181.896 64.9773C180.854 66.7454 179.821 68.4824 178.798 70.1883C178.369 70.874 177.992 71.2704 177.667 71.3774C177.357 71.5113 177.057 71.5352 176.766 71.4493C176.434 71.3511 176.18 71.1407 176.005 70.818C175.85 70.5015 175.969 69.9838 176.363 69.2651L181.774 59.322C180.474 59.1406 179.334 58.9502 178.355 58.7509C177.396 58.5578 176.739 58.3749 176.384 58.2021ZM190.124 84.9256C189.086 84.6187 188.153 84.2638 187.324 83.8608C186.51 83.4847 185.731 83.0286 184.987 82.4926C184.237 81.9773 183.438 81.3576 182.592 80.6334C182.344 80.4022 182.137 80.1491 181.97 79.874C181.797 79.6198 181.747 79.3681 181.821 79.1191C181.913 78.8078 182.208 78.534 182.707 78.2978C183.178 78.0762 183.58 78.0146 183.912 78.1127C184.265 78.2171 184.664 78.4705 185.109 78.8729C185.575 79.2815 186.112 79.7561 186.719 80.2968C187.321 80.8583 188.01 81.3893 188.787 81.89C189.585 82.3967 190.482 82.7974 191.478 83.092C192.557 83.4111 193.706 83.2656 194.925 82.6555C196.143 82.0455 197.302 80.9889 198.401 79.4859C199.494 78.0036 200.387 76.09 201.08 73.7449C201.289 73.0393 201.498 72.255 201.708 71.3918C201.945 70.5141 202.174 69.5887 202.394 68.6156C201.577 69.5475 200.7 70.4506 199.765 71.3249C198.85 72.2053 197.935 72.9727 197.019 73.6272C196.124 74.2878 195.247 74.7732 194.388 75.0834C193.556 75.379 192.787 75.4224 192.082 75.2138C191.189 74.9499 190.613 74.5314 190.354 73.9582C190.095 73.385 190.106 72.6212 190.389 71.6665C190.683 70.6704 191.075 69.6127 191.564 68.4935C192.053 67.3743 192.586 66.257 193.164 65.1416C193.769 64.0116 194.397 62.9561 195.048 61.9752C195.7 60.9942 196.329 60.1646 196.935 59.4865C197.266 59.1328 197.638 59.0173 198.053 59.1401C198.344 59.226 198.578 59.4645 198.756 59.8556C198.96 60.232 198.992 60.6589 198.851 61.1362C198.74 61.5098 198.501 62.0144 198.132 62.6502C197.764 63.2859 197.326 64.0028 196.819 64.8007C196.313 65.5987 195.794 66.4382 195.262 67.3192C194.737 68.1794 194.257 69.0415 193.82 69.9056C193.391 70.7489 193.065 71.544 192.844 72.2911C192.752 72.6024 192.914 72.8194 193.329 72.9422C193.557 73.0097 193.94 72.8973 194.478 72.605C195.043 72.298 195.686 71.8788 196.407 71.3474C197.155 70.8014 197.922 70.1931 198.707 69.5225C199.519 68.8374 200.307 68.1564 201.071 67.4797C201.842 66.7823 202.518 66.136 203.1 65.5409C203.128 65.3687 203.164 65.21 203.207 65.0647C203.25 64.9194 203.29 64.7846 203.327 64.66C203.627 63.6432 203.918 63.0409 204.199 62.8532C204.508 62.6509 204.838 62.602 205.191 62.7063C205.793 62.8842 206.178 63.1449 206.347 63.4884C206.517 63.8318 206.503 64.3356 206.307 64.9996C206.233 65.2487 206.122 65.5093 205.974 65.7814C205.832 66.0328 205.612 66.3964 205.313 66.8722C204.994 68.5608 204.693 70.0741 204.41 71.4123C204.148 72.7565 203.821 74.0927 203.428 75.4209C202.686 77.932 201.637 79.9914 200.281 81.599C198.946 83.2128 197.402 84.3134 195.649 84.9007C193.916 85.4941 192.074 85.5024 190.124 84.9256ZM213.519 81.3697C211.921 80.8972 210.819 80.0071 210.213 78.6995C209.634 77.3772 209.623 75.7718 210.182 73.8833C210.525 72.7211 211.083 71.4079 211.854 69.9434C212.653 68.4644 213.559 66.9269 214.572 65.331C215.613 63.7204 216.689 62.1429 217.8 60.5984C218.911 59.0538 219.965 57.6277 220.961 56.3199C221.984 54.9976 222.86 53.9028 223.591 53.0355C224.005 52.5488 224.441 52.373 224.898 52.508C225.52 52.6921 225.718 53.1681 225.491 53.9359C225.417 54.185 225.153 54.6596 224.697 55.36C224.242 56.0603 223.659 56.926 222.948 57.9569C222.243 58.9671 221.47 60.0926 220.629 61.3334C219.788 62.5742 218.925 63.8535 218.039 65.1712C217.179 66.4743 216.354 67.7762 215.563 69.0769C214.779 70.3569 214.091 71.5753 213.501 72.7322C212.91 73.8891 212.486 74.9034 212.229 75.775C212.063 76.3353 212.076 76.8245 212.269 77.2424C212.488 77.6458 212.857 77.9241 213.376 78.0776C214.33 78.3599 215.34 78.4554 216.405 78.3641C217.497 78.2582 218.572 78.0571 219.63 77.7606C220.695 77.4434 221.673 77.1121 222.565 76.7665C223.484 76.4064 224.258 76.1162 224.887 75.8961C225.523 75.6552 225.944 75.5655 226.152 75.6268C226.608 75.7618 226.763 76.0784 226.615 76.5764C226.566 76.7425 226.308 77.0047 225.841 77.363C225.38 77.7007 224.781 78.0875 224.042 78.5237C223.304 78.9598 222.466 79.3891 221.529 79.8115C220.619 80.2193 219.676 80.5837 218.701 80.9047C217.753 81.2111 216.825 81.4106 215.917 81.5033C215.024 81.6229 214.225 81.5784 213.519 81.3697ZM239.583 73.1332C239.387 73.7972 238.986 74.3896 238.381 74.9102C237.782 75.41 237.054 75.8493 236.197 76.2278C235.347 76.5856 234.433 76.8908 233.455 77.1434C232.478 77.396 231.519 77.5864 230.578 77.7144C229.638 77.8425 228.791 77.9194 228.039 77.9452C227.634 78.7055 227.339 79.3969 227.155 80.0195C227.038 80.4138 227.049 80.7216 227.186 80.9428C227.324 81.1641 227.59 81.333 227.984 81.4496C228.856 81.7073 229.825 81.8248 230.893 81.8019C231.96 81.7791 233.076 81.6689 234.24 81.4716C235.404 81.2742 236.536 81.0334 237.636 80.7493C238.735 80.4651 239.743 80.1875 240.658 79.9165C241.594 79.6516 242.367 79.4403 242.978 79.2824C243.589 79.1245 243.977 79.0701 244.143 79.1192C244.392 79.1929 244.555 79.3311 244.63 79.5339C244.732 79.7222 244.753 79.9201 244.692 80.1276C244.642 80.2936 244.288 80.5386 243.628 80.8625C242.989 81.1925 242.149 81.5534 241.107 81.9451C240.073 82.3161 238.928 82.6771 237.673 83.0282C236.418 83.3793 235.134 83.6767 233.821 83.9202C232.528 84.1699 231.301 84.3147 230.138 84.3545C228.996 84.4005 228.01 84.3007 227.18 84.0552C226.101 83.7361 225.38 83.0829 225.017 82.0956C224.655 81.1083 224.725 79.7637 225.229 78.062C225.566 76.9206 226.052 75.8118 226.686 74.7355C227.341 73.6654 228.084 72.6779 228.916 71.7729C229.775 70.8533 230.649 70.0736 231.538 69.4337C232.453 68.7792 233.345 68.3207 234.212 68.0582C235.086 67.7749 235.865 67.7345 236.55 67.9371C237.857 68.3237 238.777 68.9906 239.31 69.9379C239.842 70.8852 239.933 71.9503 239.583 73.1332ZM229.401 75.7416C230.161 75.5375 230.948 75.3188 231.762 75.0855C232.576 74.8522 233.341 74.5932 234.057 74.3085C234.773 74.0238 235.381 73.6845 235.881 73.2908C236.408 72.8824 236.751 72.4085 236.911 71.8689C237.138 71.101 236.836 70.5944 236.006 70.3489C235.487 70.1955 234.839 70.3649 234.062 70.8572C233.311 71.3348 232.523 72.0157 231.697 72.9C230.872 73.7842 230.106 74.7314 229.401 75.7416ZM239.317 96.5809C237.719 96.1083 236.592 95.606 235.937 95.0737C235.282 94.5415 235.031 94.016 235.185 93.4972C235.283 93.1651 235.466 92.926 235.735 92.7799C236.025 92.6399 236.336 92.6189 236.668 92.7171C237.021 92.8214 237.514 93.0237 238.147 93.3238C238.774 93.6447 239.41 93.9003 240.053 94.0905C242.191 94.7226 244.131 94.6082 245.875 93.7473C247.619 92.8864 249.241 91.2559 250.741 88.8559C252.246 86.4351 253.728 83.2173 255.186 79.2027C254.189 80.2845 253.109 81.3417 251.946 82.3745C250.81 83.3926 249.643 84.2885 248.444 85.0623C247.271 85.8214 246.126 86.3742 245.008 86.7206C243.89 87.0671 242.875 87.1053 241.961 86.8352C241.09 86.5775 240.511 86.1694 240.225 85.6108C239.959 85.0584 239.974 84.2841 240.268 83.288C240.532 82.3956 241.061 81.525 241.853 80.6762C242.652 79.8066 243.617 78.9861 244.748 78.2146C245.878 77.4432 247.077 76.7482 248.343 76.1297C249.615 75.4904 250.854 74.9652 252.059 74.5542C253.29 74.1285 254.403 73.837 255.398 73.6797C256.392 73.5224 257.159 73.5235 257.699 73.6831C258.238 73.8426 258.598 74.1522 258.778 74.6116C258.958 75.0711 258.895 75.8196 258.588 76.8573C257.87 79.2854 257.087 81.6266 256.24 83.8811C255.42 86.1209 254.49 88.1591 253.45 89.9956C252.411 91.8321 251.217 93.3521 249.868 94.5555C248.534 95.7859 246.997 96.5951 245.257 96.9834C243.517 97.3717 241.537 97.2375 239.317 96.5809ZM255.528 75.9863C254.294 76.3436 253.004 76.7746 251.659 77.2795C250.314 77.7843 249.026 78.3626 247.795 79.0141C246.585 79.6719 245.542 80.4129 244.666 81.2372C243.791 82.0615 243.205 82.9717 242.911 83.9678C242.819 84.2791 242.97 84.4931 243.364 84.6097C243.676 84.7017 244.172 84.5889 244.852 84.2711C245.56 83.9387 246.376 83.4691 247.3 82.8623C248.23 82.2347 249.192 81.5375 250.186 80.7708C251.207 79.9894 252.18 79.1824 253.103 78.3496C254.026 77.5168 254.834 76.7291 255.528 75.9863ZM268.916 97.2093C268.563 97.105 268.308 96.8604 268.151 96.4754C267.994 96.0905 268.005 95.5971 268.183 94.9953C268.391 94.2897 268.793 93.3139 269.387 92.0678C270.002 90.8279 270.846 89.1932 271.92 87.1638C270.967 88.3263 269.973 89.3977 268.939 90.3781C267.925 91.3646 266.934 92.121 265.966 92.6472C264.998 93.1733 264.119 93.3198 263.331 93.0866C262.563 92.8596 261.967 92.3562 261.543 91.5764C261.14 90.8027 261.163 89.6584 261.611 88.1434C261.862 87.2926 262.217 86.3594 262.675 85.344C263.14 84.3078 263.643 83.2943 264.184 82.3034C264.725 81.3125 265.233 80.4357 265.706 79.6731C266.186 78.8898 266.578 78.3285 266.881 77.9895C267.125 77.7004 267.334 77.5254 267.51 77.4646C267.692 77.3831 267.908 77.3791 268.157 77.4528C268.448 77.5387 268.722 77.7552 268.98 78.1025C269.239 78.4497 269.282 78.9138 269.11 79.4949C269.067 79.6402 268.893 79.9611 268.589 80.4577C268.311 80.9397 267.954 81.534 267.52 82.2405C267.112 82.9323 266.676 83.6834 266.21 84.4936C265.745 85.3039 265.311 86.1234 264.908 86.952C264.526 87.7868 264.227 88.5674 264.012 89.2937C263.896 89.688 263.842 90.022 263.852 90.2956C263.861 90.5691 264.032 90.755 264.364 90.8532C264.654 90.9391 265.103 90.756 265.711 90.3038C266.339 89.8577 267.054 89.2341 267.855 88.4329C268.683 87.617 269.552 86.7005 270.462 85.6833C271.393 84.6722 272.313 83.6239 273.22 82.5383C274.149 81.4588 275.007 80.4262 275.795 79.4406C276.072 79.1161 276.315 78.94 276.527 78.9122C276.744 78.8637 276.967 78.8732 277.195 78.9407C277.569 79.0511 277.855 79.305 278.053 79.7022C278.279 80.0848 278.321 80.5147 278.18 80.992C278.088 81.3033 277.866 81.8245 277.514 82.5555C277.183 83.2927 276.761 84.1494 276.247 85.1257C275.759 86.0873 275.222 87.1021 274.635 88.1698C274.07 89.2437 273.507 90.3072 272.947 91.3604C272.394 92.3928 271.878 93.3349 271.401 94.1866C270.944 95.0445 270.57 95.7352 270.28 96.2587C270.023 96.7468 269.78 97.0359 269.55 97.126C269.335 97.2429 269.123 97.2707 268.916 97.2093ZM278.204 99.3127C277.809 99.1961 277.5 98.9465 277.274 98.5639C277.055 98.1605 277.041 97.6372 277.231 96.9939C277.366 96.5373 277.615 95.9227 277.979 95.1502C278.349 94.3569 278.782 93.5033 279.278 92.5892C279.774 91.6752 280.277 90.7747 280.788 89.8875C281.325 88.9858 281.832 88.1878 282.308 87.4936C282.784 86.7994 283.171 86.2931 283.468 85.9748C283.72 85.7334 283.931 85.5926 284.101 85.5526C284.291 85.5187 284.459 85.5232 284.604 85.5661C284.895 85.652 285.116 85.8191 285.269 86.0672C285.442 86.3215 285.449 86.7184 285.289 87.258C285.197 87.5693 284.981 88.0697 284.642 88.7592C284.33 89.4341 283.939 90.2213 283.47 91.1207C283.028 92.0055 282.555 92.9152 282.053 93.85C281.578 94.7702 281.115 95.6488 280.665 96.4859C280.214 97.3231 279.848 98.0272 279.566 98.5984C279.385 98.9059 279.163 99.1223 278.9 99.2477C278.664 99.3585 278.432 99.3802 278.204 99.3127ZM286.345 83.0003C285.868 82.8592 285.454 82.5789 285.104 82.1595C284.775 81.7462 284.705 81.2179 284.896 80.5746C285.055 80.035 285.309 79.636 285.656 79.3776C286.024 79.1253 286.406 78.9787 286.801 78.9378C287.224 78.8822 287.57 78.8943 287.84 78.9741C288.11 79.0539 288.392 79.2051 288.688 79.4278C289.01 79.6359 289.249 79.9324 289.406 80.3174C289.569 80.6816 289.565 81.1542 289.393 81.7353C289.277 82.1296 289.037 82.4425 288.676 82.674C288.32 82.8847 287.92 83.0148 287.477 83.0643C287.054 83.1198 286.677 83.0985 286.345 83.0003ZM302.361 89.2597C303.32 88.0765 304.261 86.8425 305.182 85.5579C306.124 84.2794 307.024 82.9544 307.881 81.5829C308.128 81.2047 308.413 80.9278 308.736 80.7525C309.085 80.5624 309.436 80.5196 309.789 80.6239C310.038 80.6976 310.218 80.8523 310.329 81.0882C310.461 81.3302 310.48 81.6068 310.388 81.9181C310.272 82.3124 309.914 82.9513 309.314 83.8346C308.735 84.7241 307.996 85.8484 307.098 87.2076C306.22 88.5729 305.265 90.1634 304.231 91.9792C303.225 93.7803 302.219 95.8074 301.214 98.0604C300.23 100.32 299.345 102.777 298.56 105.434C298.388 106.015 298.122 106.455 297.763 106.755C297.397 107.076 297.038 107.184 296.685 107.08C296.478 107.018 296.296 106.908 296.14 106.749C295.984 106.59 295.891 106.292 295.863 105.855C295.849 105.444 295.92 104.822 296.076 103.988C296.239 103.134 296.528 102.001 296.946 100.59C297.265 99.5104 297.674 98.3563 298.173 97.1272C296.709 98.5674 295.226 99.7651 293.725 100.72C292.251 101.661 290.894 102.32 289.653 102.698C288.434 103.083 287.461 103.167 286.735 102.952C285.843 102.689 285.205 102.173 284.823 101.405C284.455 100.665 284.443 99.7133 284.787 98.5512C285.087 97.5343 285.636 96.5568 286.432 95.6188C287.229 94.6808 288.175 93.8096 289.27 93.0052C290.372 92.18 291.538 91.4416 292.769 90.79C293.999 90.1384 295.197 89.601 296.36 89.1777C297.55 88.7398 298.618 88.4464 299.565 88.2975C300.518 88.128 301.254 88.1199 301.773 88.2733C301.98 88.3347 302.145 88.4625 302.268 88.6569C302.392 88.8513 302.422 89.0522 302.361 89.2597ZM301.671 90.1051C301.483 90.2074 301.263 90.3005 301.013 90.3844C300.762 90.4683 300.488 90.5564 300.19 90.6488C299.087 91.0221 297.859 91.4716 296.508 91.9972C295.183 92.5082 293.875 93.1145 292.585 93.8161C291.321 94.503 290.218 95.294 289.276 96.1891C288.335 97.0841 287.695 98.1023 287.358 99.2437C287.21 99.7418 287.386 100.064 287.884 100.212C288.569 100.414 289.411 100.314 290.41 99.9095C291.437 99.4909 292.558 98.8294 293.773 97.925C294.995 96.9998 296.274 95.8775 297.612 94.558C298.956 93.2178 300.309 91.7335 301.671 90.1051ZM320.963 97.1978C320.767 97.8619 320.366 98.4542 319.761 98.9748C319.161 99.4747 318.434 99.9139 317.577 100.292C316.726 100.65 315.812 100.955 314.835 101.208C313.858 101.461 312.899 101.651 311.958 101.779C311.017 101.907 310.171 101.984 309.419 102.01C309.013 102.77 308.719 103.462 308.534 104.084C308.418 104.478 308.428 104.786 308.566 105.007C308.704 105.229 308.97 105.398 309.364 105.514C310.236 105.772 311.205 105.889 312.273 105.867C313.34 105.844 314.456 105.734 315.62 105.536C316.784 105.339 317.916 105.098 319.016 104.814C320.115 104.53 321.123 104.252 322.038 103.981C322.974 103.716 323.747 103.505 324.358 103.347C324.969 103.189 325.357 103.135 325.523 103.184C325.772 103.258 325.934 103.396 326.01 103.599C326.112 103.787 326.133 103.985 326.071 104.192C326.022 104.358 325.668 104.603 325.008 104.927C324.368 105.257 323.528 105.618 322.487 106.01C321.452 106.381 320.307 106.742 319.053 107.093C317.798 107.444 316.514 107.741 315.201 107.985C313.908 108.235 312.681 108.379 311.518 108.419C310.376 108.465 309.39 108.365 308.56 108.12C307.481 107.801 306.76 107.148 306.397 106.16C306.035 105.173 306.105 103.828 306.608 102.127C306.946 100.985 307.432 99.8764 308.066 98.8002C308.721 97.7301 309.464 96.7425 310.296 95.8376C311.155 94.918 312.028 94.1382 312.917 93.4984C313.833 92.8439 314.725 92.3854 315.592 92.1228C316.466 91.8396 317.245 91.7992 317.93 92.0017C319.237 92.3883 320.157 93.0553 320.689 94.0025C321.222 94.9498 321.313 96.0149 320.963 97.1978ZM310.781 99.8062C311.541 99.6021 312.328 99.3835 313.142 99.1502C313.955 98.9169 314.72 98.6579 315.436 98.3731C316.152 98.0884 316.76 97.7492 317.261 97.3554C317.788 96.9471 318.131 96.4731 318.29 95.9335C318.517 95.1657 318.216 94.659 317.386 94.4135C316.867 94.2601 316.219 94.4295 315.441 94.9218C314.691 95.3994 313.903 96.0804 313.077 96.9646C312.251 97.8488 311.486 98.796 310.781 99.8062Z" fill="#262626"/>
</svg>
