<svg width="2589" height="197" viewBox="0 0 2589 197" fill="none" xmlns="http://www.w3.org/2000/svg">
<circle cx="98.2707" cy="98.7499" r="98.2292" fill="#4ECB71"/>
<circle cx="337.437" cy="98.7499" r="98.2292" fill="#4ECB71"/>
<circle cx="576.604" cy="98.7499" r="98.2292" fill="#4ECB71"/>
<circle cx="815.771" cy="98.7499" r="98.2292" fill="#4ECB71"/>
<circle cx="1055.23" cy="98.7499" r="98.2292" fill="#4ECB71"/>
<circle cx="1294.1" cy="98.75" r="98.2292" fill="#4ECB71"/>
<circle cx="1533.27" cy="98.75" r="98.2292" fill="#4ECB71"/>
<circle cx="1772.44" cy="98.75" r="98.2292" fill="#4ECB71"/>
<circle cx="2011.6" cy="98.75" r="98.2292" fill="#4ECB71"/>
<circle cx="2250.77" cy="98.75" r="98.2292" fill="#4ECB71"/>
<circle cx="2489.94" cy="98.75" r="98.2292" fill="#4ECB71"/>
<g clip-path="url(#clip0_147_1074)">
<path d="M128.337 129.158L113.142 113.818C117.842 108.935 120.723 102.252 120.723 94.8762C120.723 79.8475 108.649 67.6583 93.7629 67.6583C78.8767 67.6583 66.8374 79.8821 66.8374 94.9109C66.8374 109.94 78.911 122.129 93.7972 122.129C96.6765 122.129 99.4599 121.677 102.071 120.829" stroke="white" stroke-width="5.125" stroke-miterlimit="10" stroke-linecap="square" stroke-linejoin="round"/>
</g>
<g clip-path="url(#clip1_147_1074)">
<path d="M303.271 129.5H373.415" stroke="white" stroke-width="5.125" stroke-miterlimit="10"/>
<path d="M311.812 120.958V96.5291H363.062V120.958" stroke="white" stroke-width="5.125" stroke-miterlimit="10"/>
<path d="M318.646 96.5292V83.4092H356.229V96.5292" stroke="white" stroke-width="5.125" stroke-miterlimit="10"/>
<path d="M311.573 110.367C311.738 110.537 311.87 110.674 312.035 110.811C313.784 112.451 315.797 113.373 317.909 113.373C321.935 113.373 325.499 109.991 327.71 104.832C329.921 109.991 333.485 113.373 337.511 113.373C341.537 113.373 345.101 109.991 347.312 104.832C349.523 109.991 353.088 113.373 357.114 113.373C359.193 113.373 361.14 112.485 362.823 110.947" stroke="white" stroke-width="5.125" stroke-miterlimit="10" stroke-linejoin="bevel"/>
<path d="M337.437 66.2916V74.8333" stroke="white" stroke-width="5.125" stroke-miterlimit="10"/>
</g>
<g clip-path="url(#clip2_147_1074)">
<path d="M598.813 102.167V130.798H554.396V102.167" stroke="white" stroke-width="5.125" stroke-miterlimit="10"/>
<path d="M544.146 97.0415L576.604 67.9999L609.063 97.0415" stroke="white" stroke-width="5.125" stroke-miterlimit="10"/>
<path d="M576.604 117.542C580.378 117.542 583.438 114.482 583.438 110.708C583.438 106.934 580.378 103.875 576.604 103.875C572.83 103.875 569.771 106.934 569.771 110.708C569.771 114.482 572.83 117.542 576.604 117.542Z" stroke="white" stroke-width="5.125" stroke-miterlimit="10"/>
</g>
<g clip-path="url(#clip3_147_1074)">
<path d="M839.085 104.971C830.967 113.676 815.803 126.117 815.771 126.083C815.738 126.117 794.697 108.844 788.917 100.789C788.56 100.275 787.521 98.6985 787.521 98.6985C785.93 95.9909 785.021 92.7692 785.021 89.3418C785.021 79.4367 792.586 71.4166 801.938 71.4166C807.653 71.4166 812.718 74.4327 815.771 79.0254C818.823 74.4327 823.888 71.4166 829.603 71.4166C838.955 71.4166 846.521 79.4367 846.521 89.3418C846.521 91.0555 846.293 92.7349 845.871 94.3115H838.435" stroke="white" stroke-width="5.125" stroke-miterlimit="10"/>
</g>
<path d="M1073.72 111.008C1073.72 111.008 1082.08 101.997 1082.08 91.5722C1082.08 76.6422 1069.83 64.5834 1054.75 64.5834C1039.63 64.5834 1027.42 76.6864 1027.42 91.5722C1027.42 101.997 1035.74 111.008 1035.74 111.008L1054.75 132.917L1073.72 111.008Z" stroke="white" stroke-width="5.125" stroke-miterlimit="10" stroke-linejoin="round"/>
<path d="M1054.75 81.6667V98.7501" stroke="white" stroke-width="5.125" stroke-miterlimit="10"/>
<path d="M1294.1 88.5C1299.76 88.5 1304.35 83.9109 1304.35 78.25C1304.35 72.5891 1299.76 68 1294.1 68C1288.44 68 1283.85 72.5891 1283.85 78.25C1283.85 83.9109 1288.44 88.5 1294.1 88.5Z" stroke="white" stroke-width="5.125" stroke-miterlimit="10"/>
<path d="M1314.6 128.144H1263.35C1263.35 112.86 1277.11 100.458 1294.1 100.458C1311.1 100.458 1324.85 112.86 1324.85 128.144V129.5" stroke="white" stroke-width="5.125" stroke-miterlimit="10"/>
<g clip-path="url(#clip4_147_1074)">
<path d="M1563 104.558H1540.45C1540.26 104.558 1540.1 104.711 1540.1 104.9V127.45C1540.1 127.639 1540.26 127.792 1540.45 127.792H1563C1563.18 127.792 1563.34 127.639 1563.34 127.45V104.9C1563.34 104.711 1563.18 104.558 1563 104.558Z" stroke="white" stroke-width="5.125" stroke-miterlimit="10"/>
<path d="M1515.33 128.817C1508.25 128.817 1502.52 123.083 1502.52 116.004C1502.52 108.925 1508.25 103.192 1515.33 103.192C1522.41 103.192 1528.15 108.925 1528.15 116.004C1528.15 123.083 1522.41 128.817 1515.33 128.817Z" stroke="white" stroke-width="5.125" stroke-miterlimit="10"/>
<path d="M1535.92 94.5655C1535.31 95.0694 1534.65 95.0642 1534.04 94.56C1531.4 92.3578 1523.92 85.9987 1521.56 82.6805C1521.37 82.4372 1520.87 81.6261 1520.87 81.6261C1520.07 80.2878 1519.6 78.6657 1519.6 76.9624C1519.6 72.0148 1523.37 68 1528.06 68C1530.9 68 1533.44 69.5005 1534.98 71.8121C1536.52 69.5005 1539.05 68 1541.9 68C1546.55 68 1550.35 72.0148 1550.35 76.9624C1550.35 78.6657 1549.89 80.2878 1549.09 81.6667C1549.09 81.6667 1548.55 82.4372 1548.39 82.7211C1546.03 85.9771 1538.56 92.3636 1535.92 94.5655Z" stroke="white" stroke-width="5.125" stroke-miterlimit="10"/>
</g>
<g clip-path="url(#clip5_147_1074)">
<path d="M1793.59 75.4142H1800.15V127.553H1744.59V75.4142H1751.19" stroke="white" stroke-width="5.125" stroke-miterlimit="10"/>
<path d="M1768.23 75.4142H1776.5" stroke="white" stroke-width="5.125" stroke-miterlimit="10"/>
<path d="M1746.09 89.2516H1800.15" stroke="white" stroke-width="5.125" stroke-miterlimit="10"/>
<path d="M1759.76 70.0499V80.2999" stroke="white" stroke-width="5.125" stroke-miterlimit="10"/>
<path d="M1785.01 70.0499V80.2999" stroke="white" stroke-width="5.125" stroke-miterlimit="10"/>
<path d="M1758.09 106.984C1760.45 106.984 1762.36 105.072 1762.36 102.713C1762.36 100.355 1760.45 98.4425 1758.09 98.4425C1755.73 98.4425 1753.82 100.355 1753.82 102.713C1753.82 105.072 1755.73 106.984 1758.09 106.984Z" fill="white"/>
<path d="M1786.96 106.984C1789.32 106.984 1791.23 105.072 1791.23 102.713C1791.23 100.355 1789.32 98.4425 1786.96 98.4425C1784.6 98.4425 1782.69 100.355 1782.69 102.713C1782.69 105.072 1784.6 106.984 1786.96 106.984Z" fill="white"/>
<path d="M1772.44 107.292C1774.8 107.292 1776.71 105.38 1776.71 103.021C1776.71 100.662 1774.8 98.75 1772.44 98.75C1770.08 98.75 1768.17 100.662 1768.17 103.021C1768.17 105.38 1770.08 107.292 1772.44 107.292Z" fill="white"/>
</g>
<path d="M2021.19 73.1932L2011.6 82.7772L2002.02 73.1932" stroke="white" stroke-width="4.79196" stroke-miterlimit="10"/>
<path d="M2002.02 124.307L2011.61 114.723L2021.19 124.307" stroke="white" stroke-width="4.79196" stroke-miterlimit="10"/>
<path d="M2011.6 66.804V130.697" stroke="white" stroke-width="4.79196" stroke-miterlimit="10"/>
<path d="M2028.95 119.829L2025.44 106.734L2038.53 103.229" stroke="white" stroke-width="4.79196" stroke-miterlimit="10"/>
<path d="M1994.26 77.6717L1997.77 90.7661L1984.68 94.2715" stroke="white" stroke-width="4.79195" stroke-miterlimit="10"/>
<path d="M2039.27 114.722L1983.94 82.7755" stroke="white" stroke-width="4.79196" stroke-miterlimit="10"/>
<path d="M2038.53 94.2715L2025.44 90.7609L2028.95 77.6716" stroke="white" stroke-width="4.79196" stroke-miterlimit="10"/>
<path d="M1984.68 103.229L1997.77 106.739L1994.26 119.829" stroke="white" stroke-width="4.79196" stroke-miterlimit="10"/>
<path d="M2039.27 82.7756L1983.94 114.722" stroke="white" stroke-width="4.79196" stroke-miterlimit="10"/>
<g clip-path="url(#clip6_147_1074)">
<path d="M2284.94 117.542H2273.29" stroke="white" stroke-width="5.125" stroke-miterlimit="10"/>
<path d="M2245.65 117.542H2216.6" stroke="white" stroke-width="5.125" stroke-miterlimit="10"/>
<path d="M2264.64 126.083C2269.4 126.083 2273.25 122.259 2273.25 117.542C2273.25 112.824 2269.4 109 2264.64 109C2259.89 109 2256.03 112.824 2256.03 117.542C2256.03 122.259 2259.89 126.083 2264.64 126.083Z" stroke="white" stroke-width="5.125" stroke-miterlimit="10"/>
<path d="M2216.6 79.9584H2228.25" stroke="white" stroke-width="5.125" stroke-miterlimit="10"/>
<path d="M2255.9 79.9584H2284.94" stroke="white" stroke-width="5.125" stroke-miterlimit="10"/>
<path d="M2236.9 88.5001C2241.65 88.5001 2245.51 84.6758 2245.51 79.9584C2245.51 75.241 2241.65 71.4167 2236.9 71.4167C2232.14 71.4167 2228.29 75.241 2228.29 79.9584C2228.29 84.6758 2232.14 88.5001 2236.9 88.5001Z" stroke="white" stroke-width="5.125" stroke-miterlimit="10"/>
</g>
<path d="M2513.85 117.808C2518.06 112.568 2520.55 105.909 2520.55 98.6817C2520.55 81.735 2506.82 68 2489.87 68C2472.92 68 2459.19 81.735 2459.19 98.6817C2459.19 115.628 2472.92 129.363 2489.87 129.363C2496.42 129.363 2502.46 127.314 2507.45 123.839" stroke="white" stroke-width="5.125" stroke-miterlimit="10"/>
<path d="M2489.29 80.5734V98.8867L2502.68 112.314" stroke="white" stroke-width="5.125" stroke-miterlimit="10"/>
<defs>
<clipPath id="clip0_147_1074">
<rect width="68.3333" height="68.3333" fill="white" transform="translate(64.104 64.5833)"/>
</clipPath>
<clipPath id="clip1_147_1074">
<rect width="68.3333" height="68.3333" fill="white" transform="translate(303.271 64.5833)"/>
</clipPath>
<clipPath id="clip2_147_1074">
<rect width="68.3333" height="68.3333" fill="white" transform="translate(542.438 64.5833)"/>
</clipPath>
<clipPath id="clip3_147_1074">
<rect width="68.3333" height="68.3333" fill="white" transform="translate(781.604 64.5833)"/>
</clipPath>
<clipPath id="clip4_147_1074">
<rect width="68.3333" height="68.3333" fill="white" transform="translate(1499.1 64.5834)"/>
</clipPath>
<clipPath id="clip5_147_1074">
<rect width="58.9717" height="59.2108" fill="white" transform="translate(1742.88 70.0499)"/>
</clipPath>
<clipPath id="clip6_147_1074">
<rect width="68.3333" height="68.3333" fill="white" transform="translate(2216.6 64.5834)"/>
</clipPath>
</defs>
</svg>
