<svg width="562" height="221" viewBox="0 0 562 221" fill="none" xmlns="http://www.w3.org/2000/svg">
<g clip-path="url(#clip0_164_1466)">
<path d="M63.7625 221C45.3752 221 30.1513 213.555 18.0908 198.624C6.03025 183.733 0 164.22 0 140.125C0 116.03 4.15198 94.0686 12.4559 74.2003C20.7599 54.3518 32.6227 38.2162 48.0443 25.7739C63.466 13.3315 79.9157 7.11035 97.4133 7.11035C114.911 7.11035 129.047 11.0603 139.823 18.9602C150.598 26.8601 155.976 36.3005 155.976 47.2616C155.976 58.2228 152.734 67.5447 146.209 75.2471C139.882 75.2471 132.764 73.8646 124.856 71.0996C116.947 68.3347 111.016 64.9772 107.062 61.0272L112.697 31.1063C107.951 28.1439 101.723 26.6626 94.0127 26.6626C81.9522 26.6626 71.2756 36.9918 61.9831 57.6105C52.6906 78.249 48.0443 103.687 48.0443 133.904C48.0443 153.851 51.3461 168.328 57.9695 177.294C64.5929 186.28 72.6596 190.783 82.1499 190.783C97.7692 190.783 112.795 183.476 127.229 168.861L139.388 179.822C137.213 182.982 133.259 187.327 127.525 192.857C121.791 198.387 116.157 202.989 110.621 206.642C105.085 210.296 98.0658 213.594 89.5641 216.557C81.0624 219.519 72.4619 221 63.7625 221Z" fill="#2F2F2F"/>
<path d="M161.631 166.925C161.631 154.68 161.848 146.287 162.263 141.744H219.758C219.758 155.371 219.541 163.765 219.126 166.925H161.631Z" fill="#2F2F2F"/>
<path d="M380.203 199.374C363.397 213.791 348.628 221 335.875 221C323.123 221 315.748 214.68 313.791 202.04C307.859 207.965 301.236 212.606 293.921 215.964C286.605 219.321 280.18 221 274.644 221C265.153 221 257.047 216.853 250.325 208.558C243.603 200.263 240.241 187.425 240.241 170.046C240.241 143.976 245.777 123.495 256.849 108.584C267.921 93.6732 280.417 86.2078 294.356 86.2078C308.294 86.2078 320.019 89.3677 329.509 95.6877C335.638 63.693 338.703 38.5121 338.703 20.1448L337.22 7.70241C352.029 2.56747 366.56 0 380.796 0C382.378 3.35746 383.168 7.20867 383.168 11.5536C383.168 25.971 378.819 55.2401 370.119 99.3809C361.42 143.522 357.07 173.502 357.07 189.302C357.07 194.042 358.158 196.412 360.332 196.412C361.519 196.412 365.275 194.535 371.602 190.783L374.568 189.005L380.203 199.374ZM308.729 103.686C301.809 103.686 295.819 110.5 290.777 124.127C285.735 137.755 283.205 151.224 283.205 164.555C283.205 177.886 284.134 186.438 286.012 190.19C287.89 193.943 290.718 195.819 294.474 195.819C300.999 195.819 307.424 193.153 313.751 187.82C314.344 179.92 318.793 153.653 327.097 109.019C320.394 105.464 314.265 103.686 308.729 103.686Z" fill="#2F2F2F"/>
<path d="M449.897 104.575C449.897 112.87 447.227 127.149 441.889 147.393C436.551 167.636 433.882 180.868 433.882 187.09C433.882 193.311 434.772 196.412 436.551 196.412C437.737 196.412 442.285 194.535 450.193 190.783L453.752 189.005L458.794 199.374C457.014 200.954 454.642 202.929 451.676 205.299C448.71 207.669 443.174 210.888 435.068 214.937C426.962 218.986 419.449 221.02 412.529 221.02C405.609 221.02 400.172 218.887 396.217 214.66C392.263 210.414 390.286 204.687 390.286 197.478C390.286 190.269 392.757 177.432 397.7 158.966C402.643 140.5 405.115 128.512 405.115 122.982C405.115 114.687 402.544 106.886 397.404 99.5784L394.735 96.0234L395.031 92.1722C405.51 89.2098 422.513 87.7285 446.041 87.7285C448.611 90.6515 449.897 96.2802 449.897 104.575ZM416.088 55.2402C412.133 51.389 410.156 46.1948 410.156 39.6773C410.156 33.1599 412.865 27.4325 418.302 22.495C423.739 17.5576 430.007 15.0889 437.124 15.0889C444.242 15.0889 449.778 17.0638 453.732 21.0138C457.686 24.9638 459.664 30.1579 459.664 36.5766C459.664 42.9953 456.856 48.6832 451.201 53.6009C445.567 58.5384 439.279 61.0071 432.379 61.0071C425.479 61.0268 420.042 59.0914 416.088 55.2402Z" fill="#2F2F2F"/>
<path d="M562 89.7623C561.605 94.6997 559.924 100.427 556.958 106.945C549.445 106.155 542.328 105.76 535.605 105.76H530.267C521.172 149.802 516.625 177.254 516.625 188.116C516.625 193.844 517.851 196.707 520.342 196.707C522.813 196.707 529.397 194.239 540.054 189.301L545.392 199.077C527.796 213.692 511.484 221 496.458 221C489.538 221 483.844 218.827 479.415 214.482C474.986 210.137 472.733 204.37 472.733 197.142C472.733 189.933 473.563 181.796 475.263 172.692C476.944 163.607 479.257 152.507 482.223 139.354C485.188 126.22 487.363 115.615 488.747 107.517C481.432 108.11 475.995 108.702 472.436 109.295C472.04 106.925 471.843 103.725 471.843 99.6569C471.843 95.6082 472.139 92.31 472.733 89.7228H491.416C492.998 79.0579 493.789 68.9855 493.789 59.5056L493.492 50.322V49.4332C508.914 44.1008 523.446 41.4346 537.088 41.4346C537.879 45.3845 538.274 50.322 538.274 56.2469C538.274 62.1718 536.594 73.3305 533.233 89.7228H562V89.7623Z" fill="#2F2F2F"/>
</g>
<defs>
<clipPath id="clip0_164_1466">
<rect width="562" height="221" fill="white"/>
</clipPath>
</defs>
</svg>
