<svg width="1920" height="1080" viewBox="0 0 1920 1080" fill="none" xmlns="http://www.w3.org/2000/svg">
<path d="M608.208 845.345C606.06 840.292 600.471 849.08 601.35 852.156C604.254 851.253 608.574 848.836 608.208 845.345ZM596.884 828.697V828.648C596.689 828.526 596.469 828.453 596.25 828.379C596.274 828.379 596.298 828.404 596.323 828.404V828.428C592.321 828.697 589.636 833.066 588.685 836.606C591.906 836.704 598.934 832.163 596.884 828.697ZM584.023 810.437C586.683 813.147 580.753 817.345 580.412 820.617C578.484 825.718 578.386 833.652 584.463 835.873C585.244 828.794 596.665 818.395 601.326 827.818C603.18 834.848 594.663 840.902 588.318 840.878C588.416 846.102 591.271 852.107 597.104 852.497C596.689 846.395 601.277 838.485 608.232 839.682C617.823 843.685 609.72 855.402 602.204 856.355C604.034 863.727 613.82 863.043 618.14 858.307C617.749 853.865 624.216 855.817 622.313 859.65C616.822 868.902 600.105 868.536 597.86 856.843C588.904 856.818 583.901 848.47 584.023 840.243C573.432 837.411 573.237 823.668 577.947 815.685C579.24 813.855 581.022 808.435 584.023 810.437Z" fill="#FFCA49"/>
<path d="M1256.28 166.048C1253.28 161.368 1249.33 171.2 1250.74 174.113C1253.45 172.694 1257.28 169.483 1256.28 166.048ZM1242.2 151.361V151.311C1241.98 151.237 1241.76 151.187 1241.52 151.162C1241.54 151.162 1241.57 151.162 1241.59 151.187V151.212C1237.69 152.207 1235.83 157.061 1235.51 160.795C1238.71 160.322 1244.81 154.497 1242.2 151.361ZM1226.31 135.405C1229.41 137.645 1224.31 142.947 1224.56 146.283C1223.56 151.759 1224.87 159.725 1231.24 160.87C1230.76 153.626 1240.15 141.105 1246.42 149.743C1249.47 156.464 1242.2 164.081 1235.95 165.201C1236.98 170.429 1240.86 175.955 1246.64 175.283C1245.15 169.234 1248.28 160.472 1255.31 160.397C1265.43 162.687 1259.55 175.905 1252.33 178.22C1255.45 185.29 1264.95 182.825 1268.36 177.299C1267.19 172.893 1273.9 173.715 1272.71 177.897C1268.95 188.152 1252.4 190.816 1248.16 179.49C1239.32 181.108 1232.95 173.615 1231.59 165.351C1220.68 164.405 1218.04 150.664 1221.24 141.802C1222.19 139.686 1223 133.911 1226.31 135.405Z" fill="#206183"/>
<path d="M343.171 216.668C343.024 211.176 334.605 217.303 334.288 220.476C337.314 220.72 342.219 220.061 343.171 216.668ZM338.754 197.017L338.778 196.968C338.632 196.797 338.461 196.626 338.29 196.48C338.314 196.504 338.339 196.529 338.363 196.529V196.553C334.532 195.333 330.432 198.408 328.26 201.338C331.188 202.632 339.364 200.996 338.754 197.017ZM333.482 175.315C334.971 178.831 327.894 180.539 326.381 183.469C322.72 187.521 319.719 194.844 324.526 199.141C327.87 192.843 342.292 187.375 343.171 197.847C342.317 205.048 332.165 207.563 326.283 205.219C324.453 210.126 324.892 216.766 330.188 219.256C332.043 213.421 339.217 207.782 345.245 211.42C352.688 218.645 340.852 226.579 333.507 224.699C332.506 232.218 341.853 235.196 347.612 232.389C348.881 228.117 354.177 232.316 351.004 235.172C342.512 241.738 327.089 235.269 329.309 223.576C320.988 220.256 319.401 210.663 322.525 203.047C313.74 196.529 318.596 183.664 325.893 177.976C327.796 176.731 331.432 172.362 333.482 175.315Z" fill="#FFC0CB"/>
<path d="M365.087 748.805C370.504 749.721 366.117 740.277 363.065 739.354C362.241 742.276 361.941 747.216 365.087 748.805ZM385.221 748.264L385.264 748.297C385.46 748.186 385.661 748.052 385.837 747.912C385.809 747.932 385.78 747.951 385.775 747.975L385.751 747.97C387.688 744.446 385.462 739.83 383.007 737.133C381.172 739.757 381.199 748.094 385.221 748.264ZM407.532 747.28C403.795 748.063 403.485 740.789 400.903 738.739C397.633 734.365 391.027 730.006 385.883 733.894C391.418 738.39 393.999 753.597 383.554 752.437C376.653 750.209 376.145 739.763 379.58 734.445C375.119 731.702 368.519 730.851 365.054 735.567C370.42 738.512 374.569 746.641 369.836 751.853C361.31 757.761 355.81 744.617 359.072 737.772C351.888 735.339 347.162 743.935 348.804 750.128C352.751 752.198 347.609 756.583 345.419 752.919C340.615 743.319 349.94 729.435 360.984 733.871C365.848 726.346 375.567 726.642 382.437 731.177C390.528 723.815 402.214 731.063 406.386 739.32C407.24 741.428 410.826 745.839 407.532 747.28Z" fill="#FFC0CB"/>
<path d="M724.575 163.671C724.697 165.819 726.308 168.016 728.626 167.821C730.505 167.87 731.115 165.77 729.7 164.623C728.309 163.402 726.283 163.451 724.575 163.671ZM716.131 180.173C717.351 182.394 719.938 183.761 722.427 183.957C727.992 181.467 718.474 178.733 716.131 180.173ZM701.147 195.088C701.733 188.326 705.247 181.613 711.007 177.878C709.86 170.799 713.789 163.231 720.426 160.375C721.964 152.515 727.918 145.118 735.898 143.312C738.241 142.677 743.512 142.238 742.975 145.948C742.365 147.755 740.877 147.657 739.364 147.193C732.531 147.291 727.113 153.101 725.112 159.277C732.165 157.739 739.071 167.21 731.53 171.458C726.869 173.728 721.232 170.189 720.475 165.233C717.059 167.625 714.814 171.775 715.18 175.998C738.851 172.679 726.21 200.239 712.349 182.223C708.395 185.275 706.077 190.133 705.443 195.039C705.491 197.871 701.172 197.969 701.147 195.088Z" fill="#FFCA49"/>
<path d="M1081.77 288.192C1076.26 288.021 1073.33 273.374 1078.92 272.154C1089.22 268.809 1093.34 288.631 1081.77 288.192Z" fill="#FFCA49"/>
<path d="M1419.86 548.294C1414.34 548.123 1411.42 533.476 1417 532.256C1427.33 528.911 1431.45 548.709 1419.86 548.294Z" fill="#FFCA49"/>
<path d="M1766.15 243.419C1760.63 243.248 1757.7 228.601 1763.29 227.381C1773.61 224.036 1777.74 243.834 1766.15 243.419Z" fill="#FFCA49"/>
<path d="M1225.53 891.71C1220.02 891.539 1217.09 876.892 1222.68 875.671C1232.98 872.327 1237.1 892.149 1225.53 891.71Z" fill="#FFC0CB"/>
<path d="M37.734 488.755C31.1206 486.582 34.049 475.499 40.6868 476.695C50.253 475.988 46.6901 492.026 37.734 488.755Z" fill="#206183"/>
<path d="M1283.44 592.381C1276.83 590.208 1279.76 579.125 1286.4 580.321C1295.96 579.614 1292.42 595.652 1283.44 592.381Z" fill="#206183"/>
<path d="M1629.73 287.505C1623.12 285.332 1626.05 274.249 1632.68 275.445C1642.25 274.738 1638.71 290.776 1629.73 287.505Z" fill="#206183"/>
<path d="M71.9967 816.157C65.3833 813.984 68.3117 802.902 74.9495 804.098C84.5157 803.39 80.9528 819.428 71.9967 816.157Z" fill="#206183"/>
<path d="M205.876 764.137C199.262 761.965 202.191 750.882 208.828 752.078C218.395 751.395 214.832 767.433 205.876 764.137Z" fill="#FFCA49"/>
<path d="M1818.73 959.149C1812.12 956.977 1815.05 945.894 1821.68 947.09C1831.27 946.382 1827.71 962.42 1818.73 959.149Z" fill="#FFC0CB"/>
<path d="M768.55 909.263C764.329 908.506 768.38 896.495 766.745 892.59C753.274 889.245 759.033 885.169 769.014 883.875C771.137 878.358 772.065 872.28 774.603 866.982C775.994 865.518 778.629 866.86 778.239 868.838C779.971 872.255 781.704 875.722 784.144 878.7C804.204 872.792 798.835 877.162 790.367 890.49C791.563 893.42 797.835 903.99 791.295 903.892C786.902 902.012 783.119 898.693 778.629 896.886C775.432 900.426 773.456 908.188 768.55 909.263Z" fill="#FFC0CB"/>
<path d="M1582.34 773.634C1578.22 771.217 1586.27 759.426 1586.98 755.35C1575.56 740.556 1575.99 735.699 1595.03 743.486C1603.91 731.72 1611.75 718.342 1608.5 743.901C1640.05 742.778 1621.92 749.686 1607.82 759.914C1609.57 776.197 1608.04 776.246 1596.59 765.285C1591.39 765.993 1586.34 774.219 1582.34 773.634Z" fill="#FFC0CB"/>
<path d="M327.966 573.901C327.82 573.633 327.722 573.389 327.674 573.169C326.868 573.975 325.428 574.194 324.574 573.242C321.085 568.799 316.546 564.894 313.007 560.817C312.861 557.399 317.888 553.762 321.231 555.202C325.16 556.887 339.143 567.237 334.507 571.753C332.945 573.169 329.919 576.684 327.966 573.901Z" fill="#FFC0CB"/>
<path d="M1363.63 413.861C1358.66 409.882 1366.2 404.024 1368.2 400.167C1370.83 396.944 1373.03 392.917 1376.69 390.768C1379.47 389.89 1380.59 392.38 1379.72 394.772C1379.01 400.093 1371.1 418.719 1363.63 413.861Z" fill="#FFC0CB"/>
<path d="M1477.67 159.273C1472.69 155.294 1480.23 149.436 1482.23 145.579C1484.87 142.357 1487.07 138.329 1490.73 136.181C1493.51 135.302 1494.63 137.792 1493.75 140.184C1493.05 145.506 1485.14 164.131 1477.67 159.273Z" fill="#FFC0CB"/>
<path d="M169.538 894.762C164.56 890.783 172.1 884.924 174.101 881.067C176.737 877.845 178.933 873.817 182.594 871.644C185.376 870.766 186.499 873.255 185.62 875.648C184.912 880.994 177.005 899.595 169.538 894.762Z" fill="#FFC0CB"/>
<path d="M450.937 397.432C450.864 397.481 450.815 397.505 450.742 397.53C448.521 393.185 446.325 388.839 444.128 384.494C442.615 382.199 440.736 375.12 437.002 377.366C435.27 378.904 436.002 381.54 435.685 383.591C435.611 389.279 434.587 394.967 434.587 400.63C430.584 400.947 425.24 402.9 422.507 402.803C418.26 402.729 415.698 405.781 419.847 408.661C422.922 411.542 427.485 413.446 429.803 416.839C431.341 420.501 429.608 440.103 436.661 434.903C440.419 430.216 442.64 424.406 445.251 419.036C450.571 421.599 455.086 425.798 460.381 428.263C467.214 427.433 460.284 415.35 458.527 410.492C459.478 409.296 460.088 407.392 460.894 406.367C470.509 390.109 465.36 389.962 450.937 397.432ZM454.793 408.832C454.183 409.345 453.865 410.199 454.256 411.2C455.793 414.813 457.258 418.352 458.38 422.161C441.005 410.761 444.592 411.371 435.685 428.752C434.245 416.961 435.636 413.543 424.532 406.855C424.801 407.026 427.168 406.318 427.583 406.269C429.974 405.976 432.366 405.781 434.757 405.537C435.88 405.415 437.637 405.146 438.442 404.218C439.15 403.388 439.004 401.997 439.052 400.972C439.174 397.188 439.321 393.429 439.638 389.669C439.711 388.766 440.273 386.471 439.882 385.666C441.298 388.498 442.737 391.329 444.153 394.161C445.422 396.651 446.496 400.093 448.326 402.217C450.4 404.609 455.769 400.044 457.721 399.043C457.965 398.921 460.454 397.994 460.479 397.871C459.966 400.239 455.525 405.537 454.793 408.832Z" fill="#206183"/>
<path d="M1877.79 480.552C1872.59 481.431 1867.07 481.504 1861.87 482.505C1863.09 476.109 1864.83 469.713 1865.66 463.195C1866.1 459.705 1862.26 458.826 1860.73 461.804C1856.33 468.2 1852.41 474.571 1847.65 480.796C1847.18 481.601 1846.28 482.48 1845.52 483.408C1845.23 483.335 1844.94 483.286 1844.67 483.213C1839.23 482.114 1834.44 480.332 1829.25 478.892C1821.29 481.284 1836.89 490.878 1838.62 494.271C1837.59 499.373 1835.03 504.109 1833.83 509.186C1835.2 518.438 1847.13 504.353 1850.23 501.985C1852.58 507.209 1854.8 512.506 1857.46 517.584C1864.85 524.59 1864.58 502.107 1865.29 498.274C1865.29 498.152 1865.29 498.055 1865.29 497.957C1869.76 495.174 1877.52 486.557 1880.37 485.117C1883.25 482.651 1881.18 479.746 1877.79 480.552ZM1861.85 496.297C1861.46 496.59 1861.17 497.054 1861.07 497.688C1860.8 502.4 1860.34 507.111 1859.43 511.749C1851.28 495.418 1854.75 491.537 1839.4 505.915C1843.23 495.516 1845.57 493.246 1836.03 485.41C1837.74 485.507 1842.08 487.411 1845.13 487.802C1849.11 488.315 1852.11 482.456 1854.02 479.624C1855.92 476.744 1857.53 473.106 1860 470.641C1859.07 475.01 1858.14 479.38 1857.31 483.75C1852.41 490.634 1870.1 485.019 1873.3 485.336C1871.68 487.265 1863.27 492.806 1861.85 496.297Z" fill="#206183"/>
<path d="M270.545 83.5538C265.347 84.4326 259.832 84.5058 254.634 85.5066C255.854 79.1109 257.587 72.7152 258.416 66.1974C258.856 62.7066 255.024 61.8278 253.487 64.806C249.094 71.2017 245.165 77.573 240.406 83.7979C239.943 84.6034 239.04 85.4822 238.283 86.4099C237.99 86.3366 237.698 86.2878 237.429 86.2146C231.987 85.1161 227.204 83.3341 222.006 81.8938C214.05 84.2861 229.644 93.8797 231.377 97.2728C230.352 102.375 227.79 107.111 226.594 112.188C227.961 121.44 239.894 107.355 242.993 104.987C245.336 110.211 247.557 115.508 250.217 120.586C257.611 127.592 257.343 105.109 258.05 101.276C258.05 101.154 258.05 101.057 258.05 100.959C262.516 98.1761 270.276 89.5589 273.132 88.1186C276.011 85.6775 273.937 82.7482 270.545 83.5538ZM254.609 99.299C254.219 99.5919 253.926 100.056 253.828 100.69C253.56 105.402 253.096 110.113 252.193 114.751C244.043 98.4202 247.508 94.5388 232.158 108.917C235.989 98.5178 238.332 96.2476 228.79 88.4116C230.499 88.5092 234.842 90.4133 237.893 90.8039C241.871 91.3165 244.872 85.4578 246.776 82.6261C248.679 79.7456 250.29 76.1083 252.755 73.6428C251.827 78.0124 250.924 82.382 250.07 86.7516C245.165 93.6356 262.858 88.021 266.055 88.3383C264.444 90.2912 256.025 95.8326 254.609 99.299Z" fill="#206183"/>
</svg>
