<svg width="396" height="448" viewBox="0 0 396 448" fill="none" xmlns="http://www.w3.org/2000/svg">
<rect x="190.25" width="170.75" height="65.4167" rx="32.7083" fill="#DEF358"/>
<path d="M241.107 37.9518H226.86V36.1068H232.839V33.7663H228.5V28.4363H237.28V26.7451H228.483V24.9513H239.501V30.1959H230.737V31.9555H239.86V33.7663H235.094V36.1068H241.107V37.9518ZM250.519 35.1159V24.2338H252.62V28.3851H253.85V23.9605H255.985V35.6284H253.85V30.1959H252.62V35.1159H250.519ZM243.122 32.878V25.4638H249.357V32.878H243.122ZM245.223 27.1893V31.1526H247.273V27.1893H245.223ZM256.378 39.4038H245.394V34.1934H247.649V37.6101H256.378V39.4038ZM271.359 33.4588H269.087V23.9434H271.359V33.4588ZM267.994 32.4509C267.436 32.542 266.883 32.6161 266.336 32.673C265.801 32.7186 265.237 32.7584 264.645 32.7926C264.064 32.8154 263.432 32.8325 262.749 32.8438C262.077 32.8438 261.325 32.8438 260.494 32.8438H259.144V24.9684H266.712V26.7451H261.382V28.0263H266.251V29.7688H261.382V31.0672C262.054 31.0672 262.675 31.0615 263.244 31.0501C263.814 31.0387 264.355 31.0216 264.867 30.9988C265.38 30.9761 265.87 30.9419 266.336 30.8963C266.815 30.8394 267.299 30.7711 267.789 30.6913L267.994 32.4509ZM271.359 34.1251V39.6943H269.087V35.9188H260.631V34.1251H271.359ZM274.006 27.3601V25.6005H277.491V23.9263H279.763V25.6005H283.282L283.265 27.3601H274.006ZM288.475 30.6059H286.391V35.7138H284.136V23.9434H286.391V28.7438H288.475V30.6059ZM282.496 30.9476C282.496 31.4031 282.399 31.8188 282.206 32.1947C282.012 32.5591 281.744 32.878 281.403 33.1513C281.061 33.4133 280.651 33.6183 280.173 33.7663C279.706 33.9144 279.193 33.9884 278.635 33.9884C278.066 33.9884 277.542 33.9144 277.063 33.7663C276.597 33.6183 276.192 33.4133 275.851 33.1513C275.509 32.878 275.241 32.5591 275.048 32.1947C274.865 31.8188 274.774 31.4031 274.774 30.9476C274.774 30.5034 274.865 30.0991 275.048 29.7347C275.241 29.3588 275.509 29.04 275.851 28.778C276.192 28.5047 276.597 28.294 277.063 28.1459C277.542 27.9979 278.066 27.9238 278.635 27.9238C279.193 27.9238 279.706 27.9979 280.173 28.1459C280.651 28.294 281.061 28.5047 281.403 28.778C281.744 29.04 282.012 29.3588 282.206 29.7347C282.399 30.0991 282.496 30.5034 282.496 30.9476ZM276.927 30.9476C276.927 31.3804 277.081 31.7106 277.388 31.9384C277.707 32.1662 278.123 32.2801 278.635 32.2801C279.148 32.2801 279.558 32.1662 279.865 31.9384C280.184 31.7106 280.343 31.3804 280.343 30.9476C280.343 30.5148 280.184 30.1902 279.865 29.9738C279.558 29.7461 279.148 29.6322 278.635 29.6322C278.123 29.6322 277.707 29.7461 277.388 29.9738C277.081 30.1902 276.927 30.5148 276.927 30.9476ZM286.955 37.6101V39.4038H276.243V34.8426H278.498V37.6101H286.955ZM301.023 31.7505C300.635 32.1491 300.174 32.4623 299.639 32.6901C299.115 32.9179 298.546 33.0318 297.931 33.0318C297.35 33.0318 296.809 32.9293 296.308 32.7243C295.806 32.5193 295.368 32.2345 294.992 31.8701C294.616 31.5056 294.32 31.0786 294.104 30.5888C293.899 30.0877 293.796 29.5411 293.796 28.9488C293.796 28.368 293.899 27.827 294.104 27.3259C294.32 26.8248 294.616 26.3977 294.992 26.0447C295.368 25.6802 295.806 25.3955 296.308 25.1905C296.809 24.9855 297.35 24.883 297.931 24.883C298.546 24.883 299.109 24.9912 299.622 25.2076C300.146 25.424 300.601 25.7315 300.988 26.1301H304.491V23.9434H306.746V35.4576H304.491V31.7505H301.023ZM295.932 28.9488C295.932 29.6094 296.12 30.1276 296.496 30.5034C296.871 30.8793 297.35 31.0672 297.931 31.0672C298.511 31.0672 298.99 30.8793 299.366 30.5034C299.753 30.1276 299.946 29.6094 299.946 28.9488C299.946 28.2997 299.753 27.7872 299.366 27.4113C298.99 27.0355 298.511 26.8476 297.931 26.8476C297.35 26.8476 296.871 27.0355 296.496 27.4113C296.12 27.7872 295.932 28.2997 295.932 28.9488ZM301.962 27.9238C301.996 28.0833 302.025 28.2484 302.048 28.4193C302.07 28.5901 302.082 28.7666 302.082 28.9488C302.082 29.393 302.042 29.729 301.962 29.9568H304.491V27.9238H301.962ZM307.104 39.4038H296.376V34.3301H298.631V37.6101H307.104V39.4038ZM320.103 35.2526V23.9605H322.375V35.2526H320.103ZM318.088 28.9488C318.088 29.5183 317.979 30.0479 317.763 30.5376C317.547 31.0273 317.245 31.4487 316.858 31.8018C316.47 32.1548 316.015 32.4338 315.491 32.6388C314.978 32.8325 314.42 32.9293 313.817 32.9293C313.213 32.9293 312.649 32.8325 312.125 32.6388C311.602 32.4338 311.146 32.1548 310.759 31.8018C310.383 31.4487 310.081 31.0273 309.853 30.5376C309.637 30.0479 309.529 29.5183 309.529 28.9488C309.529 28.368 309.637 27.8327 309.853 27.343C310.081 26.8533 310.383 26.4319 310.759 26.0788C311.146 25.7258 311.602 25.4525 312.125 25.2588C312.649 25.0538 313.213 24.9513 313.817 24.9513C314.42 24.9513 314.978 25.0538 315.491 25.2588C316.015 25.4525 316.47 25.7258 316.858 26.0788C317.245 26.4319 317.547 26.8533 317.763 27.343C317.979 27.8327 318.088 28.368 318.088 28.9488ZM311.733 28.9488C311.733 29.598 311.932 30.0991 312.33 30.4522C312.74 30.8052 313.236 30.9818 313.817 30.9818C314.409 30.9818 314.899 30.8052 315.286 30.4522C315.684 30.0991 315.884 29.598 315.884 28.9488C315.884 28.2997 315.684 27.7986 315.286 27.4455C314.899 27.0811 314.409 26.8988 313.817 26.8988C313.236 26.8988 312.74 27.0811 312.33 27.4455C311.932 27.7986 311.733 28.2997 311.733 28.9488ZM322.768 39.4038H311.903V34.1422H314.158V37.6101H322.768V39.4038Z" fill="black"/>
<path d="M242.354 65.3441L218.651 85.6867L218.651 45.0015L242.354 65.3441Z" fill="#DEF358"/>
<circle cx="162.292" cy="162.292" r="162.292" transform="matrix(-1 0 0 1 325.208 123)" fill="#DEF358" fill-opacity="0.5"/>
<mask id="mask0_182_1655" style="mask-type:alpha" maskUnits="userSpaceOnUse" x="1" y="56" width="395" height="392">
<path d="M2.37494 216.063C2.37494 224.188 1.22213 301.403 2.37494 309.208C13.9385 387.5 81.411 447.583 162.917 447.583C221.924 447.583 273.575 416.092 301.983 369C316.726 344.559 395.25 232.208 395.25 201.583C395.25 111.952 273.048 56.375 183.417 56.375C93.7854 56.375 2.37494 126.431 2.37494 216.063Z" fill="#D9D9D9"/>
</mask>
<g mask="url(#mask0_182_1655)">
<path d="M259.416 146.113C260.102 137.798 260.918 129.596 261.604 121.281C265.264 120.033 268.919 118.785 272.58 117.544C272.355 114.462 272.485 111.393 272.261 108.312C272.059 105.515 274.709 102.777 277.477 102.315C280.244 101.854 283.219 103.48 284.325 106.059C285.531 103.9 288.269 102.528 290.741 102.41C293.213 102.298 295.703 103.54 297.099 105.58C298.571 103.581 301.386 102.658 303.852 102.984C306.313 103.315 308.536 105.065 309.429 107.384C310.996 105.503 313.728 104.356 316.141 104.758C318.554 105.16 320.701 106.916 321.576 109.205C327.188 123.889 328.288 140.247 331.375 155.658C336.793 182.685 341.459 210.125 346.633 237.199C349.176 250.505 349.992 264.958 343.759 276.987C337.963 288.17 326.869 295.864 315.03 300.169C303.19 304.475 290.511 305.77 277.979 307.035L254.052 248.328C258.327 247.601 279.972 243.698 284.248 242.971C280.907 218.529 277.228 193.643 273.887 169.201C269.28 167.533 265.264 164.293 262.656 160.147C260.031 155.995 259.013 150.992 259.416 146.113Z" fill="#FFC6C6"/>
<path d="M271.403 117.733C275.797 116.526 280.197 115.314 284.591 114.107C286.412 114.646 287.211 117.407 286.59 119.205C285.969 121.003 284.449 122.316 283 123.54C279.866 126.184 276.725 128.821 273.591 131.465C281.593 132.417 289.452 135.847 295.319 141.376" stroke="#060305" stroke-width="1.28125" stroke-miterlimit="10" stroke-linecap="round" stroke-linejoin="round"/>
<path d="M320.446 113.582C319.849 118.981 318.607 124.303 316.762 129.407C316.035 131.424 313.143 132.778 311.031 132.405C308.92 132.033 307.01 130.448 307.241 128.319C307.998 121.199 308.755 114.072 309.517 106.952" stroke="#060305" stroke-width="1.28125" stroke-miterlimit="10" stroke-linecap="round" stroke-linejoin="round"/>
<path d="M306.969 128.406C306.053 130.884 303.054 132.321 300.511 131.612C298.37 131.014 296.697 129.021 296.472 126.81C295.774 119.867 297.217 112.575 297.667 105.608" stroke="#060305" stroke-width="1.28125" stroke-miterlimit="10" stroke-linecap="round" stroke-linejoin="round"/>
<path d="M295.81 127.124C295.402 129.655 293.036 131.725 290.475 131.796C287.915 131.867 285.437 129.927 284.893 127.42C284.532 125.752 284.822 123.854 284.869 122.145" stroke="#060305" stroke-width="1.28125" stroke-miterlimit="10" stroke-linecap="round" stroke-linejoin="round"/>
<path d="M284.638 106.059C284.585 108.566 284.538 111.074 284.484 113.575" stroke="#060305" stroke-width="1.28125" stroke-miterlimit="10" stroke-linecap="round" stroke-linejoin="round"/>
<path d="M284.313 126.663C284.354 128.029 283.822 129.401 282.87 130.377C281.918 131.359 280.563 131.932 279.203 131.932" stroke="#060305" stroke-width="1.28125" stroke-miterlimit="10" stroke-linecap="round" stroke-linejoin="round"/>
<path d="M273.922 169.716C276.081 170.556 278.239 171.401 280.398 172.241" stroke="#060305" stroke-width="1.28125" stroke-miterlimit="10" stroke-linecap="round" stroke-linejoin="round"/>
<path d="M284.62 242.675C287.08 242.309 289.541 241.942 292.007 241.575" stroke="#060305" stroke-width="1.28125" stroke-miterlimit="10" stroke-linecap="round" stroke-linejoin="round"/>
<path d="M85.9504 278.259C96.4534 273.439 106.318 269.405 117.513 266.525C132.54 262.652 147.803 259.813 162.831 255.946C166.929 260.765 173.487 263.373 179.78 262.676C186.066 261.978 191.128 257.998 194.073 252.397C221.443 249.316 236.902 247.441 264.271 244.366C269.617 266.378 269.783 320.087 258.393 325.587C264.774 370.39 271.261 414.502 277.636 459.311L100.138 466.491C98.062 430.103 95.3061 394.395 93.2303 358.007C88.8896 360.526 67.6766 286.65 85.9504 278.259Z" fill="#FDD34F"/>
<path d="M205.446 254.822C204.984 263.113 199.632 270.802 192.323 274.74C185.013 278.679 176.006 279.004 168.159 276.284C160.311 273.563 153.617 267.963 148.909 261.121" stroke="#060305" stroke-width="1.28125" stroke-miterlimit="10" stroke-linecap="round" stroke-linejoin="round"/>
<path d="M211.176 250.476C211.176 250.476 256.677 245.023 282.763 242.061C283.816 244.615 283.313 247.797 281.723 250.056C280.463 251.848 278.553 253.06 276.702 254.225C273.964 255.94 271.231 257.655 268.493 259.37C271.202 258.732 274.33 258.542 277.11 258.596C279.889 258.649 282.758 259.483 284.745 261.428C286.732 263.374 287.601 266.573 286.353 269.057C285.466 270.826 283.716 271.973 281.989 272.949C278.435 274.953 274.656 276.568 270.747 277.757C274.455 278.1 278.346 278.655 282.048 278.993C284.171 279.188 286.471 279.466 287.991 280.962C289.825 282.772 289.813 285.888 288.541 288.135C287.27 290.377 285.017 291.885 282.704 293.032C279.659 294.546 276.377 295.575 273.012 296.078C276.258 295.48 280.226 295.611 283.432 296.397C286.637 297.184 289.653 299.756 289.854 303.05C290.079 306.746 287.512 310.153 284.544 312.364C277.636 317.504 267.145 322.276 258.398 325.576L211.176 250.476Z" fill="#FDD34F"/>
<path d="M62.1177 339.805C60.8817 341.538 59.5865 343.466 59.7344 345.595C59.9118 348.167 62.2833 350.19 64.8085 350.693C67.3396 351.189 69.9535 350.468 72.325 349.469C75.4593 348.15 78.3808 346.334 80.9592 344.111C78.3867 346.18 75.8969 349.273 74.4066 352.213C72.9104 355.158 72.8927 359.12 75.2582 361.42C77.9136 363.999 82.1716 364.283 85.7849 363.473C94.1885 361.592 106.04 354.602 114.248 350.125L108.695 269.46C108.695 269.46 48.4034 287.503 37.6166 308.627C35.6354 311.709 37.1789 321.608 46.8363 319.592C49.9943 318.929 53.0044 317.687 56.0914 316.729C53.8383 318.362 51.656 320.615 49.8819 322.756C48.1077 324.896 46.8658 327.617 47.0492 330.39C47.2325 333.164 49.0835 335.914 51.7802 336.588C53.7022 337.067 55.713 336.494 57.5758 335.819" fill="#FDD34F"/>
<path d="M1.71933 347.965C6.4445 339.828 12.6481 333.264 19.4668 326.333C26.0549 319.638 25.4102 319.952 33.8789 313.127L75.5893 365.967C71.5915 368.658 72.9576 367.292 68.9599 369.989C78.6941 377.836 87.8901 385.767 96.6072 394.726C106.477 404.869 114.845 416.383 123.835 427.318C125.674 429.553 125.485 432.965 124.195 435.556C122.906 438.146 120.251 440.009 117.377 440.334C118.441 443.528 116.945 447.36 114.372 449.53C111.8 451.7 107.879 452.114 104.91 450.524C105.714 453.54 104.916 456.857 102.562 458.909C100.209 460.962 96.6663 461.529 93.7862 460.323C93.2836 462.777 91.8347 465.072 89.7707 466.491C87.7068 467.91 85.081 468.49 82.609 468.076C75.0157 466.804 67.7298 463.836 60.6627 460.778C60.8047 458.395 63.3535 456.319 65.6718 456.875C64.1046 455.781 64.3411 452.653 65.6658 451.269C65.5298 451.145 65.3938 451.02 65.2578 450.896C57.901 444.166 49.4028 438.584 41.4545 432.563C24.4463 419.689 5.00152 409.789 -4.04668 390.468C-10.2148 377.298 -5.58428 360.544 1.71933 347.965Z" fill="#FFC6C6"/>
<path d="M69.9946 369.847C66.9017 366.725 63.8087 363.596 60.7217 360.474" stroke="#060305" stroke-width="1.28125" stroke-miterlimit="10" stroke-linecap="round" stroke-linejoin="round"/>
<path d="M186.793 191.307C196.74 192.347 206.072 198.196 211.354 206.689" stroke="#060305" stroke-width="1.28125" stroke-miterlimit="10" stroke-linecap="round" stroke-linejoin="round"/>
<path d="M133.504 229.363C136.248 223.295 139.003 217.21 142.54 211.568C146.071 205.926 150.429 200.698 155.888 196.89C163.735 191.413 173.741 189.137 183.186 190.674C192.63 192.212 202.258 196.972 206.966 205.299C211.466 213.259 215.966 221.213 220.467 229.167C221.721 231.385 221.378 234.667 219.586 236.477C217.794 238.287 214.784 238.736 212.542 237.53C212.282 238.819 211.448 240.244 210.313 240.895C209.171 241.545 207.752 241.681 206.51 241.255C205.611 242.97 203.654 244.171 201.732 244.354C199.804 244.538 197.811 243.686 196.61 242.166L162.618 244.863C160.802 245.951 158.567 246.324 156.497 245.886C154.427 245.448 152.404 244.076 151.18 242.349C149.512 243.721 147.094 244.112 145.083 243.325C143.072 242.539 141.529 240.605 141.233 238.464C138.832 239.54 135.751 238.837 134.059 236.82C132.362 234.803 132.421 231.764 133.504 229.363Z" fill="#060305"/>
<path d="M140.76 140.501L141.611 150.856L142.912 166.676L146.159 205.932L177.343 194.53L188.254 190.538L178.999 180.786L168.957 170.206L158.194 158.864L140.76 140.501Z" fill="white"/>
<path d="M154.598 165.517C154.598 169.917 158.152 173.472 162.552 173.472C165.19 173.472 167.526 172.182 168.957 170.201L158.194 158.858C156.029 160.295 154.598 162.738 154.598 165.517Z" fill="#94A2FF"/>
<path d="M148.323 188.497C148.323 184.103 151.884 180.543 156.278 180.543C160.672 180.543 164.232 184.103 164.232 188.497C164.232 192.891 160.672 196.451 156.278 196.451C151.889 196.451 148.323 192.891 148.323 188.497Z" fill="#94A2FF"/>
<path d="M174.102 188.119C174.102 190.745 175.374 193.081 177.343 194.524L188.254 190.538L178.999 180.786C176.125 181.981 174.102 184.813 174.102 188.119Z" fill="#94A2FF"/>
<path d="M141.611 150.857L142.912 166.676C146.809 166.179 149.831 162.844 149.831 158.799C149.831 154.417 146.259 150.845 141.877 150.845C141.783 150.845 141.694 150.845 141.611 150.857Z" fill="#94A2FF"/>
<path d="M159.388 257.997C159.489 252.438 159.595 244.354 159.696 238.795C155.686 239.167 151.547 237.233 149.264 233.916C146.987 230.598 146.662 226.033 148.448 222.431C150.234 218.824 154.096 216.446 158.117 216.251C158.383 217.842 159.678 219.208 161.251 219.563C162.824 219.918 164.681 219.214 165.598 217.889C166.278 219.084 167.656 219.853 169.034 219.799C170.412 219.746 171.79 218.729 172.381 217.481C173.605 218.753 175.332 219.527 177.094 219.604C178.857 219.681 180.412 219.042 181.82 217.978C187.083 214.016 191.359 208.746 194.156 202.779C198.846 204.938 202.678 209.137 203.908 214.152C205.108 219.048 205.794 224.099 206.611 229.072C207.776 236.175 202.95 243.603 196.699 247.175C196.102 251.823 195.776 256.17 195.392 259.002C193.464 263.84 185.61 268.991 178.443 269.204C170.282 269.452 163.765 265.241 159.388 257.997Z" fill="#FFC6C6"/>
<path d="M176.947 234.454L182.973 234.898C183.032 236.045 182.382 237.198 181.37 237.736C180.359 238.28 179.04 238.18 178.118 237.494C177.201 236.814 176.722 235.578 176.947 234.454Z" fill="white"/>
<path d="M196.865 247.477C190.537 251.498 182.316 252.379 175.279 249.789" stroke="#060305" stroke-width="1.28125" stroke-miterlimit="10" stroke-linecap="round" stroke-linejoin="round"/>
<path d="M158.164 226.424C156.419 225.477 154.669 224.525 152.924 223.579" stroke="#060305" stroke-width="1.28125" stroke-miterlimit="10" stroke-linecap="round" stroke-linejoin="round"/>
<path d="M161.334 238.949C160.483 238.949 159.637 238.949 158.786 238.949" stroke="#060305" stroke-width="1.28125" stroke-miterlimit="10" stroke-linecap="round" stroke-linejoin="round"/>
<path d="M194.765 202.897C192.565 208.202 189.49 213.134 185.688 217.44" stroke="#060305" stroke-width="1.28125" stroke-miterlimit="10" stroke-linecap="round" stroke-linejoin="round"/>
<path d="M199.68 215.542C198.604 214.625 197.172 214.134 195.759 214.188C194.346 214.241 192.962 214.844 191.956 215.837" stroke="#060305" stroke-width="1.28125" stroke-miterlimit="10" stroke-linecap="round" stroke-linejoin="round"/>
<path d="M186.403 225.27C186.917 227.818 187.426 230.373 187.94 232.922C187.065 232.751 186.19 232.579 185.321 232.413" stroke="#060305" stroke-width="1.28125" stroke-miterlimit="10" stroke-linecap="round" stroke-linejoin="round"/>
<path d="M199.556 225.631C198.87 224.738 197.592 224.347 196.522 224.696C195.451 225.051 194.659 226.121 194.635 227.251" stroke="#060305" stroke-width="1.28125" stroke-miterlimit="10" stroke-linecap="round" stroke-linejoin="round"/>
<path d="M176.876 228.174C176.509 226.837 175.131 225.849 173.748 225.938C172.364 226.021 171.116 227.174 170.921 228.546" stroke="#060305" stroke-width="1.28125" stroke-miterlimit="10" stroke-linecap="round" stroke-linejoin="round"/>
<path d="M80.0071 363.767C80.0071 363.767 66.2278 359.066 81.4087 343.548C81.4087 343.548 67.5466 354.441 62.2655 349.408C56.9845 344.376 68.552 330.431 68.552 330.431C68.552 330.431 54.7549 340.171 48.8115 334.559C42.8681 328.946 55.9259 316.646 57.5581 315.912C57.5581 315.912 42.9509 322.27 39.0714 317.314C36.1026 313.517 37.0075 310.383 37.0075 310.383L29.1657 316.983L73.8094 367.156L80.0071 363.767Z" fill="#FFC6C6"/>
<path d="M255.979 325.93C252.484 299.879 248.422 273.899 243.791 248.026" stroke="#060305" stroke-width="1.28125" stroke-miterlimit="10" stroke-linecap="round" stroke-linejoin="round"/>
<path d="M93.9634 275.011C93.644 303.184 93.3188 331.358 92.9994 359.532" stroke="#060305" stroke-width="1.28125" stroke-miterlimit="10" stroke-linecap="round" stroke-linejoin="round"/>
<path d="M187.941 277.596C191.146 319.034 194.346 360.467 197.551 401.905" stroke="#060305" stroke-width="1.28125" stroke-miterlimit="10" stroke-linecap="round" stroke-linejoin="round"/>
<path d="M169.98 277.933C172.967 320.27 175.959 362.607 178.946 404.945" stroke="#060305" stroke-width="1.28125" stroke-miterlimit="10" stroke-linecap="round" stroke-linejoin="round"/>
<path d="M200.094 269.772C209.816 313.044 213.488 357.67 210.987 401.953" stroke="#060305" stroke-width="1.28125" stroke-miterlimit="10" stroke-linecap="round" stroke-linejoin="round"/>
<path d="M159.069 271.788C153.978 316.296 157.136 361.738 168.342 405.116" stroke="#060305" stroke-width="1.28125" stroke-miterlimit="10" stroke-linecap="round" stroke-linejoin="round"/>
</g>
</svg>
