<svg width="428" height="450" viewBox="0 0 428 450" fill="none" xmlns="http://www.w3.org/2000/svg">
<rect x="191.25" y="0.666992" width="236.75" height="65.4167" rx="32.7083" fill="#DEF358"/>
<path d="M238.759 24.6104H241.014V36.1075H238.759V31.0167H236.042V29.1888H238.759V24.6104ZM236.179 25.7892C236.179 26.8483 236.014 27.8392 235.684 28.7617C235.365 29.6728 234.898 30.5042 234.283 31.2558C233.668 31.9961 232.911 32.651 232.011 33.2204C231.122 33.7785 230.109 34.2397 228.97 34.6042L228.047 32.7933C229.767 32.2808 231.1 31.5804 232.045 30.6921C233.002 29.7924 233.577 28.756 233.77 27.5829H228.867V25.7892H236.179ZM241.407 40.0708H230.73V34.98H232.985V38.2771H241.407V40.0708ZM258.044 30.1454H255.96V33.6988H253.705V24.5933H255.96V28.2833H258.044V30.1454ZM251.638 25.6354C251.638 27.7651 251.006 29.5475 249.742 30.9825C248.489 32.4061 246.695 33.4425 244.361 34.0917L243.455 32.2808C245.243 31.8025 246.599 31.1533 247.521 30.3333C248.444 29.5019 248.99 28.5339 249.161 27.4292H244.19V25.6354H251.638ZM250.852 33.9038C251.65 33.9038 252.373 33.9835 253.022 34.1429C253.671 34.291 254.224 34.5074 254.679 34.7921C255.146 35.0654 255.505 35.4014 255.755 35.8C256.006 36.1986 256.131 36.6428 256.131 37.1325C256.131 37.6222 256.006 38.0664 255.755 38.465C255.505 38.8636 255.146 39.2053 254.679 39.49C254.224 39.7747 253.671 39.9911 253.022 40.1392C252.373 40.2872 251.65 40.3612 250.852 40.3612C250.055 40.3612 249.332 40.2872 248.683 40.1392C248.034 39.9911 247.476 39.7747 247.009 39.49C246.553 39.2053 246.2 38.8636 245.949 38.465C245.699 38.0664 245.574 37.6222 245.574 37.1325C245.574 36.6428 245.699 36.1986 245.949 35.8C246.2 35.4014 246.553 35.0654 247.009 34.7921C247.476 34.5074 248.034 34.291 248.683 34.1429C249.332 33.9835 250.055 33.9038 250.852 33.9038ZM250.852 38.6017C251.82 38.6017 252.572 38.4821 253.107 38.2429C253.643 37.9924 253.91 37.6222 253.91 37.1325C253.91 36.6428 253.643 36.2783 253.107 36.0392C252.572 35.7886 251.82 35.6633 250.852 35.6633C249.884 35.6633 249.133 35.7886 248.597 36.0392C248.062 36.2783 247.794 36.6428 247.794 37.1325C247.794 37.6222 248.062 37.9924 248.597 38.2429C249.133 38.4821 249.884 38.6017 250.852 38.6017ZM266.397 30.1967C264.529 30.1967 263.111 29.9746 262.143 29.5304C261.186 29.0749 260.708 28.4029 260.708 27.5146C260.708 26.649 261.186 25.9885 262.143 25.5329C263.111 25.066 264.529 24.8325 266.397 24.8325C268.276 24.8325 269.694 25.066 270.651 25.5329C271.619 25.9885 272.103 26.649 272.103 27.5146C272.103 28.4029 271.619 29.0749 270.651 29.5304C269.694 29.9746 268.276 30.1967 266.397 30.1967ZM266.397 26.4896C265.258 26.4896 264.415 26.575 263.869 26.7458C263.322 26.9053 263.049 27.1615 263.049 27.5146C263.049 27.879 263.322 28.1467 263.869 28.3175C264.415 28.4769 265.258 28.5567 266.397 28.5567C267.57 28.5567 268.424 28.4769 268.959 28.3175C269.495 28.1467 269.762 27.879 269.762 27.5146C269.762 27.1615 269.495 26.9053 268.959 26.7458C268.424 26.575 267.57 26.4896 266.397 26.4896ZM273.504 32.7079H259.29V30.9483H273.504V32.7079ZM272.188 38.5333V40.2246H260.93V36.0904H269.557V35.2533H260.913V33.5963H271.778V37.645H263.168V38.5333H272.188ZM279.491 29.3938C280.22 29.3254 280.863 29.2172 281.421 29.0692C281.979 28.9097 282.458 28.7275 282.856 28.5225C283.255 28.3175 283.574 28.0897 283.813 27.8392C284.064 27.5886 284.24 27.3267 284.343 27.0533H280.174V25.2596H291.808V27.0533H287.623C287.725 27.3267 287.896 27.5886 288.135 27.8392C288.386 28.0897 288.71 28.3175 289.109 28.5225C289.508 28.7275 289.986 28.9097 290.544 29.0692C291.113 29.2172 291.763 29.3254 292.491 29.3938L291.706 31.1363C290.225 31.011 289.006 30.6921 288.05 30.1796C287.093 29.6557 286.404 29.0236 285.983 28.2833C285.561 29.035 284.878 29.6671 283.933 30.1796C282.987 30.6921 281.757 31.011 280.243 31.1363L279.491 29.3938ZM287.11 34.7067C288.488 34.8206 289.547 35.111 290.288 35.5779C291.039 36.0449 291.415 36.6883 291.415 37.5083C291.415 37.9639 291.29 38.3682 291.039 38.7213C290.789 39.0743 290.424 39.3704 289.946 39.6096C289.479 39.8601 288.91 40.0481 288.238 40.1733C287.566 40.2986 286.803 40.3612 285.949 40.3612C285.094 40.3612 284.331 40.2986 283.659 40.1733C282.987 40.0481 282.418 39.8601 281.951 39.6096C281.484 39.3704 281.125 39.0743 280.875 38.7213C280.624 38.3682 280.499 37.9639 280.499 37.5083C280.499 36.6883 280.88 36.0449 281.644 35.5779C282.407 35.0996 283.477 34.8035 284.855 34.6896V33.545H278.876V31.7513H293.089V33.545H287.11V34.7067ZM289.126 37.5083C289.126 37.1097 288.864 36.8193 288.34 36.6371C287.816 36.4549 287.019 36.3638 285.949 36.3638C284.878 36.3638 284.081 36.4549 283.557 36.6371C283.033 36.8193 282.771 37.1097 282.771 37.5083C282.771 37.9069 283.033 38.1974 283.557 38.3796C284.081 38.5504 284.878 38.6358 285.949 38.6358C287.019 38.6358 287.816 38.5504 288.34 38.3796C288.864 38.1974 289.126 37.9069 289.126 37.5083ZM308.839 38.5162H294.591V36.6883H297.735V32.8446C297.12 32.4801 296.647 32.0246 296.317 31.4779C295.986 30.9199 295.827 30.2992 295.838 29.6158C295.838 28.9667 295.986 28.3858 296.283 27.8733C296.579 27.3494 296.983 26.9053 297.496 26.5408C298.019 26.165 298.64 25.8803 299.358 25.6867C300.075 25.4817 300.855 25.3792 301.698 25.3792C302.552 25.3792 303.338 25.4817 304.056 25.6867C304.773 25.8803 305.388 26.165 305.901 26.5408C306.424 26.9053 306.834 27.3494 307.131 27.8733C307.427 28.3858 307.575 28.9667 307.575 29.6158C307.575 30.2992 307.404 30.9199 307.062 31.4779C306.732 32.0246 306.271 32.4801 305.678 32.8446V36.6883H308.839V38.5162ZM301.698 27.1558C300.605 27.1558 299.722 27.3722 299.05 27.805C298.39 28.2264 298.059 28.83 298.059 29.6158C298.059 30.4017 298.39 31.011 299.05 31.4438C299.722 31.8651 300.605 32.0758 301.698 32.0758C302.245 32.0758 302.74 32.0246 303.184 31.9221C303.64 31.8082 304.027 31.6488 304.346 31.4438C304.665 31.2274 304.91 30.9654 305.081 30.6579C305.263 30.3504 305.354 30.0031 305.354 29.6158C305.354 29.2172 305.263 28.8699 305.081 28.5738C304.91 28.2662 304.665 28.01 304.346 27.805C304.027 27.5886 303.64 27.4292 303.184 27.3267C302.74 27.2128 302.245 27.1558 301.698 27.1558ZM303.441 36.6883V33.6817C302.894 33.7842 302.313 33.8354 301.698 33.8354C301.094 33.8354 300.519 33.7842 299.973 33.6817V36.6883H303.441ZM323.341 40.3783H321.086V24.5933H323.341V40.3783ZM316.405 28.1125C316.405 28.8414 316.485 29.5589 316.645 30.265C316.804 30.9711 317.043 31.6317 317.362 32.2467C317.681 32.8617 318.085 33.414 318.575 33.9038C319.076 34.3821 319.657 34.7636 320.318 35.0483L319.036 36.8763C318.114 36.4663 317.351 35.8911 316.747 35.1508C316.143 34.3992 315.665 33.5393 315.312 32.5713C314.959 33.6418 314.469 34.5814 313.843 35.39C313.217 36.1872 312.419 36.8079 311.451 37.2521L310.102 35.39C310.785 35.0939 311.383 34.6953 311.895 34.1942C312.408 33.6817 312.829 33.1065 313.16 32.4687C313.49 31.8196 313.735 31.1249 313.894 30.3846C314.065 29.6329 314.15 28.8756 314.15 28.1125V25.8233H316.405V28.1125ZM338.373 32.6225V40.3442H336.118V24.6104H338.373V30.7604H340.628V32.6225H338.373ZM335.093 26.9337V28.7275H325.937V26.9337H329.422V24.8837H331.677V26.9337H335.093ZM330.566 29.6158C331.136 29.6158 331.66 29.7069 332.138 29.8892C332.628 30.0714 333.049 30.3333 333.402 30.675C333.755 31.0053 334.028 31.3982 334.222 31.8538C334.427 32.3093 334.53 32.8104 334.53 33.3571C334.53 33.9151 334.427 34.4276 334.222 34.8946C334.028 35.3501 333.755 35.7488 333.402 36.0904C333.049 36.4207 332.628 36.6769 332.138 36.8592C331.66 37.0414 331.136 37.1325 330.566 37.1325C329.997 37.1325 329.467 37.0414 328.977 36.8592C328.488 36.6769 328.061 36.4207 327.696 36.0904C327.343 35.7488 327.064 35.3501 326.859 34.8946C326.665 34.4276 326.569 33.9151 326.569 33.3571C326.569 32.8104 326.665 32.3093 326.859 31.8538C327.064 31.3982 327.343 31.0053 327.696 30.675C328.061 30.3333 328.488 30.0714 328.977 29.8892C329.467 29.7069 329.997 29.6158 330.566 29.6158ZM330.566 35.2875C331.113 35.2875 331.551 35.1224 331.882 34.7921C332.223 34.4504 332.394 33.9721 332.394 33.3571C332.394 32.7649 332.223 32.2979 331.882 31.9562C331.551 31.6146 331.113 31.4438 330.566 31.4438C330.02 31.4438 329.575 31.6146 329.234 31.9562C328.892 32.2865 328.721 32.7592 328.721 33.3742C328.721 33.9892 328.892 34.4618 329.234 34.7921C329.575 35.1224 330.02 35.2875 330.566 35.2875ZM343.497 30.6579V25.1742H345.752V28.8642H354.413V30.6579H343.497ZM355.985 34.0746H341.737V32.2638H355.985V34.0746ZM354.499 38.2088V40.0196H343.343V35.3217H345.615V38.2088H354.499ZM372.12 36.1246V24.6104H374.392V36.1246H372.12ZM370.087 34.2283C369.187 33.9778 368.424 33.6076 367.798 33.1179C367.183 32.6168 366.693 32.036 366.329 31.3754C365.975 32.0929 365.486 32.725 364.859 33.2717C364.233 33.8183 363.459 34.2226 362.536 34.4846L361.477 32.7421C362.115 32.5485 362.667 32.2979 363.134 31.9904C363.601 31.6715 363.982 31.3185 364.279 30.9313C364.586 30.5326 364.808 30.1113 364.945 29.6671C365.093 29.2115 365.167 28.7503 365.167 28.2833V28.1979H361.989V26.4213H365.167V24.6958H367.422V26.4213H370.582V28.1979H367.422V28.2833C367.422 28.7047 367.496 29.1318 367.644 29.5646C367.792 29.986 368.014 30.3846 368.31 30.7604C368.618 31.1363 369.005 31.4722 369.472 31.7683C369.939 32.0644 370.491 32.2979 371.129 32.4687L370.087 34.2283ZM374.785 40.0708H363.92V35.1167H366.175V38.2771H374.785V40.0708ZM385.221 34.0233V40.3442H382.932V34.0233H377.056V32.2125H386.964C387.157 31.2103 387.277 30.3163 387.323 29.5304C387.368 28.7446 387.391 28.01 387.391 27.3267H378.678V25.5158H389.595V26.9337C389.595 27.674 389.578 28.4656 389.543 29.3083C389.509 30.1397 389.395 31.1078 389.202 32.2125H391.269V34.0233H385.221Z" fill="black"/>
<path d="M243.354 66.0111L219.651 86.3536L219.651 45.6685L243.354 66.0111Z" fill="#DEF358"/>
<circle cx="162.292" cy="162.292" r="162.719" transform="matrix(-1 0 0 1 326.208 123.667)" fill="#4BC17E" stroke="#DEDEDE" stroke-width="0.854167"/>
<mask id="mask0_182_1656" style="mask-type:alpha" maskUnits="userSpaceOnUse" x="2" y="57" width="395" height="392">
<path d="M3.37494 267C3.37494 275.126 2.22213 302.07 3.37494 309.875C14.9385 388.167 82.411 448.25 163.917 448.25C222.924 448.25 274.575 416.759 302.983 369.667C317.726 345.226 396.25 232.875 396.25 202.25C396.25 112.619 274.048 57.042 184.417 57.042C94.7854 57.042 3.37494 177.369 3.37494 267Z" fill="#D9D9D9"/>
</mask>
<g mask="url(#mask0_182_1656)">
<path d="M261.007 146.189C261.693 137.874 262.509 129.671 263.195 121.356C266.856 120.108 270.511 118.861 274.171 117.619C273.947 114.538 274.077 111.468 273.852 108.387C273.651 105.59 276.3 102.852 279.068 102.391C281.836 101.929 284.81 103.556 285.916 106.134C287.123 103.975 289.861 102.603 292.333 102.485C294.805 102.373 297.294 103.615 298.69 105.655C300.163 103.656 302.978 102.734 305.444 103.059C307.904 103.39 310.128 105.14 311.021 107.459C312.588 105.578 315.32 104.431 317.733 104.833C320.146 105.235 322.292 106.992 323.168 109.28C328.78 123.964 329.88 140.322 332.967 155.734C338.384 182.76 343.05 210.2 348.225 237.274C350.768 250.58 351.584 265.033 345.35 277.062C339.555 288.245 328.461 295.939 316.621 300.245C304.781 304.55 292.102 305.845 279.571 307.111L273.757 245.671C278.033 244.944 281.564 243.773 285.839 243.046C282.498 218.604 278.82 193.718 275.478 169.276C270.871 167.609 266.856 164.368 264.248 160.222C261.622 156.071 260.605 151.067 261.007 146.189Z" fill="#FF9279"/>
<path d="M272.995 117.808C277.389 116.601 281.788 115.389 286.182 114.183C288.004 114.721 288.802 117.483 288.181 119.28C287.56 121.078 286.04 122.391 284.592 123.615C281.457 126.259 278.317 128.896 275.183 131.54C283.184 132.492 291.044 135.922 296.91 141.451" stroke="#060305" stroke-width="1.28125" stroke-miterlimit="10" stroke-linecap="round" stroke-linejoin="round"/>
<path d="M322.038 113.657C321.441 119.056 320.199 124.379 318.354 129.482C317.626 131.499 314.734 132.853 312.623 132.481C310.512 132.108 308.602 130.523 308.832 128.394C309.589 121.274 310.346 114.148 311.109 107.027" stroke="#060305" stroke-width="1.28125" stroke-miterlimit="10" stroke-linecap="round" stroke-linejoin="round"/>
<path d="M308.56 128.482C307.644 130.96 304.645 132.397 302.102 131.688C299.962 131.09 298.288 129.098 298.063 126.886C297.365 119.943 298.808 112.651 299.258 105.685" stroke="#060305" stroke-width="1.28125" stroke-miterlimit="10" stroke-linecap="round" stroke-linejoin="round"/>
<path d="M297.401 127.199C296.993 129.73 294.628 131.8 292.067 131.871C289.506 131.942 287.028 130.002 286.484 127.495C286.123 125.827 286.413 123.929 286.46 122.22" stroke="#060305" stroke-width="1.28125" stroke-miterlimit="10" stroke-linecap="round" stroke-linejoin="round"/>
<path d="M286.23 106.134C286.177 108.641 286.129 111.149 286.076 113.65" stroke="#060305" stroke-width="1.28125" stroke-miterlimit="10" stroke-linecap="round" stroke-linejoin="round"/>
<path d="M285.904 126.738C285.946 128.104 285.413 129.476 284.461 130.452C283.509 131.434 282.155 132.008 280.795 132.008" stroke="#060305" stroke-width="1.28125" stroke-miterlimit="10" stroke-linecap="round" stroke-linejoin="round"/>
<path d="M275.514 169.791C277.672 170.631 279.831 171.476 281.99 172.316" stroke="#060305" stroke-width="1.28125" stroke-miterlimit="10" stroke-linecap="round" stroke-linejoin="round"/>
<path d="M286.212 242.75C288.672 242.384 291.132 242.017 293.598 241.65" stroke="#060305" stroke-width="1.28125" stroke-miterlimit="10" stroke-linecap="round" stroke-linejoin="round"/>
<path d="M87.5415 278.334C98.0445 273.514 107.909 269.481 119.104 266.601C134.131 262.727 149.394 259.889 164.422 256.021C168.52 260.841 175.078 263.449 181.371 262.751C187.657 262.053 192.719 258.073 195.664 252.473C223.034 249.392 250.782 246.334 278.157 243.253C283.503 265.264 288.849 287.276 294.201 309.287C282.811 314.781 271.38 320.163 259.99 325.657C266.371 370.46 272.858 414.571 279.233 459.381L101.729 466.566C99.653 430.178 96.8972 394.47 94.8214 358.082C90.4806 360.596 85.034 363.221 80.6932 365.735C67.6236 344.386 54.205 322.593 41.1354 301.244C55.9851 293.266 69.2676 286.726 87.5415 278.334Z" fill="white"/>
<path d="M99.8253 331.045C99.8845 330.211 99.9791 329.206 99.8549 328.283C103.113 326.343 107.306 325.651 111.068 326.373C116.343 327.384 120.784 330.347 125.072 333.215C125.917 333.783 126.763 334.345 127.615 334.895C133.86 338.922 138.756 340.347 143.026 339.383C148.686 338.106 152.595 332.783 156.368 327.632L156.498 327.461C160.708 321.725 166.001 315.805 173.382 315.426C179.532 315.107 184.535 318.809 189.332 322.387C193.66 325.616 197.753 328.667 202.431 328.667H202.49C207.286 328.638 211.307 325.438 215.565 322.05C217.476 320.53 219.445 318.963 221.527 317.662C234.366 309.648 252.805 313.167 261.788 325.344L258.701 327.621C250.995 317.177 234.573 314.042 223.555 320.914C221.657 322.097 219.77 323.599 217.949 325.048C213.371 328.697 208.634 332.464 202.508 332.5H202.425C196.47 332.5 191.673 328.922 187.031 325.456C182.584 322.138 178.409 318.992 173.571 319.253C167.799 319.548 163.263 324.717 159.585 329.726L159.455 329.897C155.457 335.35 150.921 341.53 143.866 343.121C142.701 343.381 141.542 343.499 140.4 343.499C134.658 343.499 129.294 340.537 125.533 338.112C124.664 337.556 123.8 336.976 122.937 336.403C118.779 333.623 114.852 331.003 110.34 330.14C106.496 329.401 101.907 330.625 99.6006 333.458C99.6893 332.653 99.7662 331.849 99.8253 331.045Z" fill="#94A2FF"/>
<path d="M98.3936 346.03C103.178 344.073 108.938 344.345 113.616 345.9C118.306 347.462 122.475 350.081 126.508 352.613C128.288 353.73 130.127 354.889 131.967 355.918C139.004 359.869 145.101 361.04 150.081 359.402C155.45 357.633 159.218 352.843 163.209 347.775C167.858 341.861 172.666 335.752 180.354 334.694C187.515 333.712 193.577 337.668 199.455 341.489C204.725 344.919 209.663 348.148 215.21 347.923C219.988 347.716 224.394 344.812 228.15 342.098L229.179 341.353C233.17 338.449 237.304 335.45 242.313 334.315C247.896 333.049 255.194 334.895 257.742 340.803L254.218 342.322C252.556 338.461 247.281 337.124 243.159 338.059C238.913 339.022 235.11 341.784 231.426 344.463L230.391 345.214C226.186 348.248 221.207 351.507 215.37 351.761C208.64 352.051 202.903 348.319 197.356 344.712C191.827 341.116 186.605 337.71 180.868 338.502C174.718 339.348 170.59 344.593 166.22 350.152C162.056 355.445 157.745 360.921 151.275 363.05C149.424 363.66 147.479 363.961 145.432 363.961C140.784 363.961 135.645 362.394 130.08 359.272C128.164 358.195 126.277 357.012 124.456 355.871C120.44 353.346 116.644 350.963 112.398 349.549C107.933 348.065 102.344 347.935 98.2871 350.353C98.3226 348.91 98.3403 347.467 98.3936 346.03Z" fill="#94A2FF"/>
<path d="M97.1813 368.397C97.1931 368.207 97.2108 368.018 97.2286 367.823C102.427 365.871 108.483 366.806 112.788 368.592C117.04 370.354 120.778 372.998 124.391 375.558C125.964 376.67 127.584 377.817 129.205 378.858C135.539 382.927 140.944 384.465 145.728 383.548C152.795 382.2 157.704 375.736 162.452 369.491L162.926 368.87C167.556 362.784 174.771 354.759 184.281 355.256C188.444 355.481 192.063 357.326 195.564 359.118C198.054 360.389 200.408 361.59 202.897 362.217C208.616 363.66 214.737 361.986 220.491 359.969C221.266 359.697 222.046 359.419 222.821 359.141C228.167 357.219 233.691 355.238 239.569 355.232H239.593C246.145 355.232 254.271 358.562 256.654 365.883L253.005 367.072C251.296 361.815 244.969 359.071 239.593 359.071H239.575C234.359 359.076 229.155 360.945 224.116 362.755C223.33 363.039 222.543 363.323 221.757 363.595C215.429 365.812 208.657 367.634 201.951 365.942C199.042 365.209 196.386 363.855 193.814 362.542C190.52 360.862 187.415 359.277 184.068 359.094C176.403 358.651 170.075 365.806 165.965 371.2L165.498 371.815C160.554 378.32 154.948 385.695 146.438 387.321C145.302 387.54 144.149 387.646 142.972 387.646C138.135 387.646 132.913 385.807 127.123 382.087C125.432 380.999 123.77 379.828 122.167 378.693C118.566 376.144 115.159 373.737 111.309 372.14C107.217 370.443 101.262 369.615 96.8619 372.229C96.9861 370.946 97.0807 369.668 97.1813 368.397Z" fill="#94A2FF"/>
<path d="M207.037 254.897C206.576 263.189 201.224 270.877 193.914 274.815C186.604 278.754 177.598 279.079 169.75 276.359C161.902 273.638 155.208 268.038 150.5 261.196" stroke="#060305" stroke-width="1.28125" stroke-miterlimit="10" stroke-linecap="round" stroke-linejoin="round"/>
<path d="M261.036 325.497C257.541 299.446 253.478 273.467 248.848 247.594" stroke="#060305" stroke-width="1.28125" stroke-miterlimit="10" stroke-linecap="round" stroke-linejoin="round"/>
<path d="M99.0146 274.579C98.6953 302.753 98.37 330.926 98.0507 359.1" stroke="#060305" stroke-width="1.28125" stroke-miterlimit="10" stroke-linecap="round" stroke-linejoin="round"/>
<path d="M52.1475 297.536C63.8096 319.376 75.4658 341.216 87.1279 363.056" stroke="#060305" stroke-width="1.28125" stroke-miterlimit="10" stroke-linecap="round" stroke-linejoin="round"/>
<path d="M272.474 245.151C276.064 266.11 279.653 287.069 283.237 308.022" stroke="#060305" stroke-width="1.28125" stroke-miterlimit="10" stroke-linecap="round" stroke-linejoin="round"/>
<path d="M204.122 179.643C205.399 187.064 206.677 194.492 207.954 201.914C208.451 204.782 207.274 208.065 205.18 210.087" stroke="#060305" stroke-width="1.28125" stroke-miterlimit="10" stroke-linecap="round" stroke-linejoin="round"/>
<path d="M146.077 196.486C146.444 194.315 147.81 192.34 149.703 191.228C151.601 190.117 154.026 189.916 156.101 190.649C156.279 187.384 158.266 184.28 161.158 182.754C164.05 181.228 167.817 181.405 170.614 183.103C171.613 180.099 174.31 177.715 177.415 177.094C180.52 176.467 184.139 177.508 186.227 179.892C188.19 177.059 191.851 175.509 195.251 176.071C198.652 176.633 201.94 179.259 202.774 182.6C204.287 188.685 205.819 194.114 207.238 200.939C207.942 204.339 207.375 208.136 204.796 210.46L176.924 219.934C175.759 223.82 172.323 226.936 168.343 227.717C164.363 228.498 158.922 227.179 156.983 223.613C153.606 217.403 150.525 211.034 147.757 204.529C146.675 201.974 145.61 199.224 146.077 196.486Z" fill="#060305"/>
<path d="M145.782 141.327L147.893 156.845L154.375 204.706C173.867 210.537 184.553 192.884 184.553 192.884L170.111 173.67L145.782 141.327Z" fill="#FDD34F"/>
<path d="M147.893 156.851L151.087 180.423L152.66 192.091L154.375 204.706C155.155 204.936 155.924 205.137 156.663 205.291C174.701 209.153 184.553 192.878 184.553 192.878L174.967 180.134L170.112 173.664C167.557 173.167 164.919 173.102 162.341 173.457C160.36 173.741 158.367 174.273 156.386 173.966C154.404 173.658 152.411 172.203 152.323 170.21C152.222 167.809 154.741 166.13 155.516 163.859C156.22 161.777 155.274 159.346 153.511 158.016C151.932 156.851 149.851 156.49 147.893 156.851Z" fill="#FF9532"/>
<path d="M156.663 205.297C174.701 209.159 184.553 192.884 184.553 192.884L174.967 180.14C173.613 179.986 172.229 179.986 170.863 180.116C168.586 180.335 165.93 181.317 165.469 183.57C165.097 185.362 166.362 187.112 167.847 188.183C169.343 189.259 171.105 189.921 172.489 191.122C173.885 192.322 174.831 194.357 173.997 195.995C173.128 197.669 170.863 198.065 169 197.722C167.149 197.379 165.369 196.533 163.476 196.533C159.946 196.545 156.959 199.804 156.61 203.31C156.545 203.967 156.557 204.641 156.663 205.297Z" fill="#FDD34F"/>
<path d="M151.087 180.418L152.66 192.086C154.333 192.24 156.019 192.033 157.468 191.205C159.567 189.992 160.827 187.461 160.549 185.042C160.265 182.641 158.467 180.465 156.125 179.761C154.452 179.271 152.583 179.537 151.087 180.418Z" fill="#FDD34F"/>
<path d="M160.986 258.279C162.086 252.312 163.08 246.363 164.18 240.395C159.969 240.851 155.581 238.751 153.298 235.185C151.015 231.619 150.945 226.758 153.127 223.127C155.303 219.496 159.691 216.994 163.908 217.326C164.694 219.017 165.528 220.915 166.309 222.607C169.366 220.395 171.702 217.059 172.43 213.357C174.174 213.493 175.824 212.671 176.611 211.104C179.869 212.074 183.565 211.429 186.298 209.407C189.03 207.39 190.733 204.043 190.763 200.648C196.67 201.086 202.425 204.634 205.34 209.797C208.244 214.942 209.669 220.75 210.598 226.581C211.272 230.815 210.113 235.369 207.919 239.053C205.725 242.737 202.324 245.694 198.368 247.35C197.906 251.224 197.439 255.198 196.978 259.071C194.672 264.601 185.795 268.729 178.657 268.569C171.531 268.403 164.789 264.323 160.986 258.279Z" fill="#FF9279"/>
<path d="M162.092 226.393C160.348 225.612 158.609 224.837 156.864 224.057" stroke="#060305" stroke-width="1.28125" stroke-miterlimit="10" stroke-linecap="round" stroke-linejoin="round"/>
<path d="M199.001 247.527C192.543 250.969 184.63 251.578 177.723 249.165" stroke="#060305" stroke-width="1.28125" stroke-miterlimit="10" stroke-linecap="round" stroke-linejoin="round"/>
<path d="M183.979 231.797L188.728 232.536C188.716 233.459 188.125 234.346 187.285 234.718C186.445 235.091 185.387 234.925 184.701 234.316C184.009 233.701 183.713 232.678 183.979 231.797Z" fill="white"/>
<path d="M178.828 226.775C178.123 226.775 177.551 226.204 177.551 225.498C177.551 224.793 178.123 224.221 178.828 224.221C179.534 224.221 180.106 224.793 180.106 225.498C180.106 226.204 179.534 226.775 178.828 226.775Z" fill="#060305"/>
<path d="M202.448 224.222C201.743 224.222 201.171 223.65 201.171 222.944C201.171 222.239 201.743 221.667 202.448 221.667C203.154 221.667 203.726 222.239 203.726 222.944C203.726 223.65 203.154 224.222 202.448 224.222Z" fill="#060305"/>
<path d="M192.087 223.128C192.743 225.393 193.406 227.664 194.062 229.929C193.346 229.811 192.631 229.698 191.915 229.58" stroke="#060305" stroke-width="1.28125" stroke-miterlimit="10" stroke-linecap="round" stroke-linejoin="round"/>
<path d="M204.973 214.428C204.246 213.251 202.892 212.483 201.508 212.471C200.124 212.459 198.758 213.198 198.013 214.369" stroke="#060305" stroke-width="1.28125" stroke-miterlimit="10" stroke-linecap="round" stroke-linejoin="round"/>
<path d="M181.685 214.967C180.082 215.061 178.473 215.156 176.871 215.245" stroke="#060305" stroke-width="1.28125" stroke-miterlimit="10" stroke-linecap="round" stroke-linejoin="round"/>
<path d="M190.816 200.099C191.934 204.161 190.857 208.757 188.054 211.903" stroke="#060305" stroke-width="1.28125" stroke-miterlimit="10" stroke-linecap="round" stroke-linejoin="round"/>
<path d="M1.53036 349.223C6.25553 341.085 13.0151 334.355 19.6918 327.726C27.8234 319.653 35.9549 312.539 45.2042 305.549L80.7583 363.173C76.7605 365.864 72.7687 368.561 68.7709 371.252C78.5051 379.099 87.7012 387.03 96.4182 395.989C106.288 406.132 114.657 417.646 123.646 428.581C125.485 430.816 125.296 434.228 124.006 436.819C122.717 439.409 120.062 441.272 117.188 441.597C118.252 444.791 116.756 448.623 114.183 450.793C111.611 452.964 107.69 453.377 104.721 451.787C105.526 454.803 104.727 458.12 102.373 460.173C100.02 462.225 96.4773 462.792 93.5973 461.586C93.0946 464.04 91.6457 466.335 89.5818 467.754C87.5178 469.173 84.8921 469.753 82.4201 469.339C74.8267 468.068 67.5408 465.099 60.4738 462.041C60.6157 459.658 63.1646 457.582 65.4828 458.138C63.9156 457.044 64.1522 453.916 65.4769 452.532C65.3409 452.408 65.2049 452.283 65.0688 452.159C57.712 445.429 49.2138 439.847 41.2656 433.826C24.2573 420.952 4.81255 411.052 -4.23565 391.731C-10.3979 378.555 -5.76734 361.801 1.53036 349.223Z" fill="#FF9279"/>
<path d="M69.812 371.104C66.7191 367.981 63.6261 364.853 60.5391 361.73" stroke="#060305" stroke-width="1.28125" stroke-miterlimit="10" stroke-linecap="round" stroke-linejoin="round"/>
</g>
</svg>
